<?xml version="1.0" encoding="UTF-8" standalone="no"?>
<!-- Created with Inkscape (http://www.inkscape.org/) -->

<svg
   xmlns:dc="http://purl.org/dc/elements/1.1/"
   xmlns:cc="http://creativecommons.org/ns#"
   xmlns:rdf="http://www.w3.org/1999/02/22-rdf-syntax-ns#"
   xmlns:svg="http://www.w3.org/2000/svg"
   xmlns="http://www.w3.org/2000/svg"
   xmlns:sodipodi="http://sodipodi.sourceforge.net/DTD/sodipodi-0.dtd"
   xmlns:inkscape="http://www.inkscape.org/namespaces/inkscape"
   width="27.185184mm"
   height="25.549284mm"
   viewBox="0 0 96.325455 90.528955"
   id="svg253740"
   version="1.1"
   inkscape:version="0.91 r13725"
   sodipodi:docname="logo-white.svg">
  <defs
     id="defs253742" />
  <sodipodi:namedview
     id="base"
     pagecolor="#ffffff"
     bordercolor="#666666"
     borderopacity="1.0"
     inkscape:pageopacity="0.0"
     inkscape:pageshadow="2"
     inkscape:zoom="5.6"
     inkscape:cx="14.082288"
     inkscape:cy="-9.3639046"
     inkscape:document-units="px"
     inkscape:current-layer="layer1"
     showgrid="false"
     inkscape:window-width="1880"
     inkscape:window-height="2108"
     inkscape:window-x="81"
     inkscape:window-y="24"
     inkscape:window-maximized="0"
     fit-margin-top="1"
     fit-margin-left="1"
     fit-margin-bottom="1"
     fit-margin-right="1" />
  <metadata
     id="metadata253745">
    <rdf:RDF>
      <cc:Work
         rdf:about="">
        <dc:format>image/svg+xml</dc:format>
        <dc:type
           rdf:resource="http://purl.org/dc/dcmitype/StillImage" />
        <dc:title></dc:title>
      </cc:Work>
    </rdf:RDF>
  </metadata>
  <g
     inkscape:label="Layer 1"
     inkscape:groupmode="layer"
     id="layer1"
     transform="translate(-275.15309,-35.371831)">
    <g
       id="g86957"
       transform="matrix(0.74237823,0,0,0.74237823,91.994603,83.887425)"
       style="opacity:0.40900005;stroke:#141414;stroke-width:3.21214938;stroke-miterlimit:4;stroke-dasharray:none;stroke-opacity:1" />
    <path
       inkscape:connector-curvature="0"
       id="path86912-0-9"
       d="m 344.51327,61.26142 c 0.85672,15.603069 -19.01215,27.217107 -32.15502,18.60379 -11.97682,-6.792122 -14.43435,-25.668818 -3.56672,-34.624514 9.85986,-8.948394 27.75993,-6.123705 33.41933,6.264779 1.51124,3.014393 2.30089,6.384795 2.30241,9.755945 z"
       style="opacity:1;fill:none;fill-opacity:1;stroke:#ffffff;stroke-width:2.13896418;stroke-linecap:round;stroke-linejoin:round;stroke-miterlimit:4;stroke-dasharray:none;stroke-dashoffset:0;stroke-opacity:1" />
    <path
       inkscape:connector-curvature="0"
       id="path86914-0-6"
       d="M 341.98664,71.253081 C 335.8766,67.725444 329.76655,64.197807 323.6565,60.67017 c -6.33045,3.654885 -12.66091,7.30977 -18.99136,10.964656"
       style="fill:none;fill-rule:evenodd;stroke:#ffffff;stroke-width:2.13896418;stroke-linecap:butt;stroke-linejoin:miter;stroke-miterlimit:4;stroke-dasharray:none;stroke-opacity:1" />
    <path
       inkscape:connector-curvature="0"
       id="path86914-3-9-7"
       d="m 338.84298,72.931459 c -5.04913,-2.915121 -10.09826,-5.830241 -15.1474,-8.745362"
       style="fill:none;fill-rule:evenodd;stroke:#ffffff;stroke-width:2.13896418;stroke-linecap:butt;stroke-linejoin:miter;stroke-miterlimit:4;stroke-dasharray:none;stroke-opacity:1" />
    <path
       inkscape:connector-curvature="0"
       id="path86914-3-6-8-2"
       d="m 336.00843,75.166381 c -5.04914,-2.915124 -10.09828,-5.83025 -15.14741,-8.745375"
       style="fill:none;fill-rule:evenodd;stroke:#ffffff;stroke-width:2.13896418;stroke-linecap:butt;stroke-linejoin:miter;stroke-miterlimit:4;stroke-dasharray:none;stroke-opacity:1" />
    <path
       inkscape:connector-curvature="0"
       id="path86954-0-1"
       d="m 304.56879,52.537411 c 5.68106,8.486846 18.99172,-3.552865 10.30284,-9.8721 l -1.06045,-0.6871"
       style="opacity:1;fill:none;fill-opacity:1;stroke:#ffffff;stroke-width:2.13896418;stroke-linecap:round;stroke-linejoin:round;stroke-miterlimit:4;stroke-dasharray:none;stroke-dashoffset:0;stroke-opacity:1" />
    <path
       style="font-style:normal;font-variant:normal;font-weight:normal;font-stretch:normal;font-size:45.29478836px;line-height:125%;font-family:Montez;-inkscape-font-specification:Montez;letter-spacing:0px;word-spacing:0px;fill:#ffffff;fill-opacity:1;stroke:#ffffff;stroke-width:1.46653605;stroke-linecap:butt;stroke-linejoin:miter;stroke-miterlimit:4;stroke-dasharray:none;stroke-opacity:1"
       d="m 286.96905,94.080045 c -1.8148,3.93909 -2.22802,8.353065 -2.42336,12.651825 2.36575,1.11344 4.31556,2.70706 6.42255,0.10573 4.17195,-3.24066 4.9028,-10.069675 1.01867,-13.829578 -2.48952,-3.074383 -7.63132,-3.082138 -9.97866,0.160312 -2.42435,1.483981 1.65159,6.337841 -1.90013,5.695491 -1.95948,-3.35438 1.46743,-6.905425 4.48478,-8.135572 5.60552,-2.373495 12.6701,2.331025 12.43153,8.481762 0.0928,4.879365 -4.03407,8.764165 -8.48177,10.008165 4.13337,3.90231 7.78259,9.83199 14.13103,9.86654 2.8788,0.0738 -2.48733,1.40266 -3.52882,0.77894 -5.87053,-0.53422 -9.22666,-5.90436 -12.41186,-10.20488 -4.03726,-0.502 -1.52214,4.72912 -1.95078,7.24157 -0.7529,1.02052 -1.37087,-3.83184 -1.55051,-5.09358 1.10193,-2.53943 -4.21445,-2.41841 -1.7703,-4.77591 2.2774,-0.0915 1.07922,-2.66671 1.39559,-4.23302 0.31662,-3.060545 -0.0628,-7.305095 3.02625,-9.032517 0.28051,-0.150442 1.13198,-0.279202 1.08579,0.314722 z m -5.63352,14.115285 c 2.74457,3.92503 1.79988,-3.87147 0,0 z m 3.16296,1.22741 c 3.03843,0.85683 0.72059,-2.47884 0.004,-1.44771 -0.006,0.48254 -0.003,0.96515 -0.004,1.44771 z m 23.00619,0.23604 c -2.06065,3.30824 -7.94017,4.08046 -9.88228,0.29899 -1.86267,-3.8443 2.42764,-8.78756 6.4518,-7.08911 3.34752,2.75035 -1.7638,6.05028 -4.67362,5.32667 0.53445,4.17459 5.81481,3.14364 8.1041,1.46345 z m -8.15131,-1.93553 c 3.31715,1.29126 5.49688,-5.63142 1.33757,-3.83961 -1.05118,0.95495 -1.36991,2.47476 -1.33757,3.83961 z m 15.87774,2.45483 c -1.58041,3.76345 -6.73628,2.20342 -7.30746,-1.4074 -1.96956,-5.48583 -1.97874,-12.058055 1.0317,-17.161205 2.1838,-3.596915 6.18528,-0.256336 5.44175,3.03707 -0.0516,4.17967 -1.82543,8.481675 -5.17718,11.078215 0.34304,2.95481 2.64388,7.85456 6.01119,4.45332 z m -6.48328,-9.70918 c 0.0272,1.70579 -0.21628,6.56049 1.76638,3.14231 2.27979,-3.28262 3.08949,-7.721445 2.05749,-11.57686 -3.02128,-1.992509 -3.44111,4.375595 -3.70978,6.479345 -0.0606,0.65006 -0.10149,1.30237 -0.11409,1.955205 z m 13.70616,3.19443 c -1.36959,0.33042 -4.37616,-0.48126 -4.89395,2.27386 -2.12043,2.62628 1.52489,6.89268 3.39901,3.39507 -0.0496,-1.48354 2.65658,-5.48059 1.57755,-1.75457 -0.93054,3.23448 3.1398,4.29037 4.84279,2.08109 -0.96852,2.30798 -5.28288,4.39308 -6.35739,1.0858 -2.31155,3.37407 -7.69395,0.52977 -5.56862,-3.30262 0.94961,-2.52575 3.49508,-5.24103 6.4341,-4.48676 0.2794,0.1134 0.58785,0.37164 0.56651,0.70813 z m 22.88029,-13.344216 c -0.0993,2.286295 -3.72425,4.331341 -5.0136,6.617951 -2.24323,2.77462 -4.28775,5.702325 -6.30066,8.646075 2.83489,4.4775 6.25288,8.60863 10.27568,12.06959 -2.19288,-0.34406 -4.6325,-3.08021 -6.6195,-4.69157 -1.95889,-1.08493 -3.83092,-5.51747 -5.37855,-4.82903 -2.14956,3.20063 -4.2264,6.45006 -6.42893,9.61502 -0.28898,-1.66331 2.12981,-3.88094 2.84823,-5.74368 0.84673,-2.44576 4.75673,-4.96029 2.01447,-7.27329 -2.365,-3.80646 -5.09404,-7.971575 -4.87844,-12.632885 1.28917,-4.17163 2.61829,1.309384 3.052,2.99945 1.14887,3.2712 2.66491,6.407905 4.43839,9.384865 3.30386,-4.804755 6.22744,-10.154625 10.92086,-13.75729 0.34239,-0.160525 0.67517,-0.396305 1.07005,-0.405206 z m 7.67922,19.339666 c -2.06065,3.30824 -7.94018,4.08046 -9.88227,0.29899 -1.86268,-3.8443 2.42764,-8.78756 6.4518,-7.08911 3.34753,2.75035 -1.76379,6.05028 -4.67362,5.32667 0.53445,4.17459 5.81481,3.14364 8.10409,1.46345 z m -8.15129,-1.93553 c 3.31714,1.29126 5.49687,-5.63142 1.33756,-3.83961 -1.05118,0.95495 -1.36991,2.47476 -1.33756,3.83961 z m 21.93612,1.93553 c -1.24112,2.91294 -5.79895,2.97479 -7.12845,0.0944 -2.19434,4.23398 -9.31422,2.4746 -7.34384,-2.57384 0.38547,-3.15293 4.49454,-3.93546 5.8017,-4.96375 0.18411,-3.721695 0.33496,-7.828675 2.6122,-10.94446 3.47682,-3.059911 5.2925,3.000195 4.32743,5.657135 -0.68851,3.846175 -1.76687,7.767255 -4.01271,11.015265 0.51879,2.77205 3.95582,3.79065 5.74367,1.71524 z m -6.4518,-8.765 c -0.003,2.10497 -0.0307,4.23877 0.48782,6.29443 2.05026,-4.33777 3.44306,-9.265855 2.80103,-14.083805 -2.13481,-3.866825 -3.35585,2.87102 -3.20132,4.83197 -0.0576,0.98459 -0.0934,1.97102 -0.0876,2.957405 z m -3.9655,9.69343 c 4.51862,0.16396 1.84279,-3.84831 1.80966,-6.57769 -3.86457,-2.50608 -6.35431,6.52134 -1.80966,6.57769 z"
       id="text86918-1"
       inkscape:connector-curvature="0" />
  </g>
</svg>
