<svg class="marks" viewBox="0 0 657 100"><g transform="translate(52,11)"><g class="mark-group role-frame root"><g transform="translate(0,0)"><path class="background" d="M0.5,0.5h600v50h-600Z" style="fill: transparent; stroke: rgb(221, 221, 221);"></path><g><g class="mark-group role-axis"><g transform="translate(0.5,0.5)"><path class="background" d="M0,0h0v0h0Z" style="pointer-events: none; fill: none;"></path><g><g class="mark-rule role-axis-grid" style="pointer-events: none;"><line transform="translate(0,50)" x2="600" y2="0" style="fill: none; stroke: rgb(221, 221, 221); stroke-width: 1; opacity: 1;"></line><line transform="translate(0,25)" x2="600" y2="0" style="fill: none; stroke: rgb(221, 221, 221); stroke-width: 1; opacity: 1;"></line><line transform="translate(0,0)" x2="600" y2="0" style="fill: none; stroke: rgb(221, 221, 221); stroke-width: 1; opacity: 1;"></line></g></g></g></g><g class="mark-rect role-mark marks"><path d="M2,36h36v14h-36Z" style="fill: rgb(214, 161, 72);"></path><path d="M42,22.499999999999996h36v27.500000000000004h-36Z" style="fill: rgb(214, 161, 72);"></path><path d="M82,28.5h36v21.5h-36Z" style="fill: rgb(214, 161, 72);"></path><path d="M122,4.5h36v45.5h-36Z" style="fill: rgb(214, 161, 72);"></path><path d="M162,9.5h36v40.5h-36Z" style="fill: rgb(214, 161, 72);"></path><path d="M202,23.5h36v26.5h-36Z" style="fill: rgb(214, 161, 72);"></path><path d="M242,40.5h36v9.5h-36Z" style="fill: rgb(214, 161, 72);"></path><path d="M282,6.5h36v43.5h-36Z" style="fill: rgb(214, 161, 72);"></path><path d="M322,24h36v26h-36Z" style="fill: rgb(214, 161, 72);"></path><path d="M362,40.5h36v9.5h-36Z" style="fill: rgb(214, 161, 72);"></path><path d="M402,6.5h36v43.5h-36Z" style="fill: rgb(214, 161, 72);"></path><path d="M442,24h36v26h-36Z" style="fill: rgb(214, 161, 72);"></path><path d="M482,40.5h36v9.5h-36Z" style="fill: rgb(214, 161, 72);"></path><path d="M522,6.5h36v43.5h-36Z" style="fill: rgb(214, 161, 72);"></path><path d="M562,24h36v26h-36Z" style="fill: rgb(214, 161, 72);"></path></g><g class="mark-group role-axis"><g transform="translate(0.5,50.5)"><path class="background" d="M0,0h0v0h0Z" style="pointer-events: none; fill: none;"></path><g><g class="mark-rule role-axis-tick" style="pointer-events: none;"><line transform="translate(19,0)" x2="0" y2="5" style="fill: none; stroke: rgb(136, 136, 136); stroke-width: 1; opacity: 1;"></line><line transform="translate(59,0)" x2="0" y2="5" style="fill: none; stroke: rgb(136, 136, 136); stroke-width: 1; opacity: 1;"></line><line transform="translate(99,0)" x2="0" y2="5" style="fill: none; stroke: rgb(136, 136, 136); stroke-width: 1; opacity: 1;"></line><line transform="translate(139,0)" x2="0" y2="5" style="fill: none; stroke: rgb(136, 136, 136); stroke-width: 1; opacity: 1;"></line><line transform="translate(179,0)" x2="0" y2="5" style="fill: none; stroke: rgb(136, 136, 136); stroke-width: 1; opacity: 1;"></line><line transform="translate(219,0)" x2="0" y2="5" style="fill: none; stroke: rgb(136, 136, 136); stroke-width: 1; opacity: 1;"></line><line transform="translate(259,0)" x2="0" y2="5" style="fill: none; stroke: rgb(136, 136, 136); stroke-width: 1; opacity: 1;"></line><line transform="translate(299,0)" x2="0" y2="5" style="fill: none; stroke: rgb(136, 136, 136); stroke-width: 1; opacity: 1;"></line><line transform="translate(339,0)" x2="0" y2="5" style="fill: none; stroke: rgb(136, 136, 136); stroke-width: 1; opacity: 1;"></line><line transform="translate(379,0)" x2="0" y2="5" style="fill: none; stroke: rgb(136, 136, 136); stroke-width: 1; opacity: 1;"></line><line transform="translate(419,0)" x2="0" y2="5" style="fill: none; stroke: rgb(136, 136, 136); stroke-width: 1; opacity: 1;"></line><line transform="translate(459,0)" x2="0" y2="5" style="fill: none; stroke: rgb(136, 136, 136); stroke-width: 1; opacity: 1;"></line><line transform="translate(499,0)" x2="0" y2="5" style="fill: none; stroke: rgb(136, 136, 136); stroke-width: 1; opacity: 1;"></line><line transform="translate(539,0)" x2="0" y2="5" style="fill: none; stroke: rgb(136, 136, 136); stroke-width: 1; opacity: 1;"></line><line transform="translate(579,0)" x2="0" y2="5" style="fill: none; stroke: rgb(136, 136, 136); stroke-width: 1; opacity: 1;"></line></g><g class="mark-text role-axis-label" style="pointer-events: none;"><text text-anchor="end" transform="translate(19,7) rotate(270) translate(0,3)" style="font-style: normal; font-variant: normal; font-weight: normal; font-stretch: normal; font-size: 10px; line-height: normal; font-family: sans-serif; fill: rgb(0, 0, 0); opacity: 1;">A</text><text text-anchor="end" transform="translate(59,7) rotate(270) translate(0,3)" style="font-style: normal; font-variant: normal; font-weight: normal; font-stretch: normal; font-size: 10px; line-height: normal; font-family: sans-serif; fill: rgb(0, 0, 0); opacity: 1;">B</text><text text-anchor="end" transform="translate(99,7) rotate(270) translate(0,3)" style="font-style: normal; font-variant: normal; font-weight: normal; font-stretch: normal; font-size: 10px; line-height: normal; font-family: sans-serif; fill: rgb(0, 0, 0); opacity: 1;">C</text><text text-anchor="end" transform="translate(139,7) rotate(270) translate(0,3)" style="font-style: normal; font-variant: normal; font-weight: normal; font-stretch: normal; font-size: 10px; line-height: normal; font-family: sans-serif; fill: rgb(0, 0, 0); opacity: 1;">D</text><text text-anchor="end" transform="translate(179,7) rotate(270) translate(0,3)" style="font-style: normal; font-variant: normal; font-weight: normal; font-stretch: normal; font-size: 10px; line-height: normal; font-family: sans-serif; fill: rgb(0, 0, 0); opacity: 1;">E</text><text text-anchor="end" transform="translate(219,7) rotate(270) translate(0,3)" style="font-style: normal; font-variant: normal; font-weight: normal; font-stretch: normal; font-size: 10px; line-height: normal; font-family: sans-serif; fill: rgb(0, 0, 0); opacity: 1;">F</text><text text-anchor="end" transform="translate(259,7) rotate(270) translate(0,3)" style="font-style: normal; font-variant: normal; font-weight: normal; font-stretch: normal; font-size: 10px; line-height: normal; font-family: sans-serif; fill: rgb(0, 0, 0); opacity: 1;">G</text><text text-anchor="end" transform="translate(299,7) rotate(270) translate(0,3)" style="font-style: normal; font-variant: normal; font-weight: normal; font-stretch: normal; font-size: 10px; line-height: normal; font-family: sans-serif; fill: rgb(0, 0, 0); opacity: 1;">H</text><text text-anchor="end" transform="translate(339,7) rotate(270) translate(0,3)" style="font-style: normal; font-variant: normal; font-weight: normal; font-stretch: normal; font-size: 10px; line-height: normal; font-family: sans-serif; fill: rgb(0, 0, 0); opacity: 1;">I</text><text text-anchor="end" transform="translate(379,7) rotate(270) translate(0,3)" style="font-style: normal; font-variant: normal; font-weight: normal; font-stretch: normal; font-size: 10px; line-height: normal; font-family: sans-serif; fill: rgb(0, 0, 0); opacity: 1;">J</text><text text-anchor="end" transform="translate(419,7) rotate(270) translate(0,3)" style="font-style: normal; font-variant: normal; font-weight: normal; font-stretch: normal; font-size: 10px; line-height: normal; font-family: sans-serif; fill: rgb(0, 0, 0); opacity: 1;">K</text><text text-anchor="end" transform="translate(459,7) rotate(270) translate(0,3)" style="font-style: normal; font-variant: normal; font-weight: normal; font-stretch: normal; font-size: 10px; line-height: normal; font-family: sans-serif; fill: rgb(0, 0, 0); opacity: 1;">L</text><text text-anchor="end" transform="translate(499,7) rotate(270) translate(0,3)" style="font-style: normal; font-variant: normal; font-weight: normal; font-stretch: normal; font-size: 10px; line-height: normal; font-family: sans-serif; fill: rgb(0, 0, 0); opacity: 1;">M</text><text text-anchor="end" transform="translate(539,7) rotate(270) translate(0,3)" style="font-style: normal; font-variant: normal; font-weight: normal; font-stretch: normal; font-size: 10px; line-height: normal; font-family: sans-serif; fill: rgb(0, 0, 0); opacity: 1;">N</text><text text-anchor="end" transform="translate(579,7) rotate(270) translate(0,3)" style="font-style: normal; font-variant: normal; font-weight: normal; font-stretch: normal; font-size: 10px; line-height: normal; font-family: sans-serif; fill: rgb(0, 0, 0); opacity: 1;">O</text></g><g class="mark-rule role-axis-domain" style="pointer-events: none;"><line transform="translate(0,0)" x2="600" y2="0" style="fill: none; stroke: rgb(136, 136, 136); stroke-width: 1; opacity: 1;"></line></g><g class="mark-text role-axis-title" style="pointer-events: none;"><text text-anchor="middle" transform="translate(300,29.330078125)" style="font-style: normal; font-variant: normal; font-weight: bold; font-stretch: normal; font-size: 11px; line-height: normal; font-family: sans-serif; fill: rgb(0, 0, 0); opacity: 1;">a</text></g></g></g></g><g class="mark-group role-axis"><g transform="translate(0.5,0.5)"><path class="background" d="M0,0h0v0h0Z" style="pointer-events: none; fill: none;"></path><g><g class="mark-rule role-axis-tick" style="pointer-events: none;"><line transform="translate(0,50)" x2="-5" y2="0" style="fill: none; stroke: rgb(136, 136, 136); stroke-width: 1; opacity: 1;"></line><line transform="translate(0,25)" x2="-5" y2="0" style="fill: none; stroke: rgb(136, 136, 136); stroke-width: 1; opacity: 1;"></line><line transform="translate(0,0)" x2="-5" y2="0" style="fill: none; stroke: rgb(136, 136, 136); stroke-width: 1; opacity: 1;"></line></g><g class="mark-text role-axis-label" style="pointer-events: none;"><text text-anchor="end" transform="translate(-7,53)" style="font-style: normal; font-variant: normal; font-weight: normal; font-stretch: normal; font-size: 10px; line-height: normal; font-family: sans-serif; fill: rgb(0, 0, 0); opacity: 1;">0</text><text text-anchor="end" transform="translate(-7,28)" style="font-style: normal; font-variant: normal; font-weight: normal; font-stretch: normal; font-size: 10px; line-height: normal; font-family: sans-serif; fill: rgb(0, 0, 0); opacity: 1;">50</text><text text-anchor="end" transform="translate(-7,3)" style="font-style: normal; font-variant: normal; font-weight: normal; font-stretch: normal; font-size: 10px; line-height: normal; font-family: sans-serif; fill: rgb(0, 0, 0); opacity: 1;">100</text></g><g class="mark-rule role-axis-domain" style="pointer-events: none;"><line transform="translate(0,50)" x2="0" y2="-50" style="fill: none; stroke: rgb(136, 136, 136); stroke-width: 1; opacity: 1;"></line></g><g class="mark-text role-axis-title" style="pointer-events: none;"><text text-anchor="middle" transform="translate(-34,25) rotate(-90) translate(0,-2)" style="font-style: normal; font-variant: normal; font-weight: bold; font-stretch: normal; font-size: 11px; line-height: normal; font-family: sans-serif; fill: rgb(0, 0, 0); opacity: 1;">b</text></g></g></g></g></g></g></g></g></svg>