<?xml version="1.0" encoding="UTF-8" standalone="no"?>
<!-- Created with Inkscape (http://www.inkscape.org/) -->

<svg
   xmlns:dc="http://purl.org/dc/elements/1.1/"
   xmlns:cc="http://creativecommons.org/ns#"
   xmlns:rdf="http://www.w3.org/1999/02/22-rdf-syntax-ns#"
   xmlns:svg="http://www.w3.org/2000/svg"
   xmlns="http://www.w3.org/2000/svg"
   xmlns:sodipodi="http://sodipodi.sourceforge.net/DTD/sodipodi-0.dtd"
   xmlns:inkscape="http://www.inkscape.org/namespaces/inkscape"
   width="37.198704mm"
   height="34.493675mm"
   viewBox="0 0 131.80643 122.22168"
   id="svg253740"
   version="1.1"
   inkscape:version="0.92.3 (unknown)"
   sodipodi:docname="logo-white.svg">
  <defs
     id="defs253742" />
  <sodipodi:namedview
     id="base"
     pagecolor="#ffffff"
     bordercolor="#666666"
     borderopacity="1.0"
     inkscape:pageopacity="0.0"
     inkscape:pageshadow="2"
     inkscape:zoom="3.959798"
     inkscape:cx="-131.06402"
     inkscape:cy="-70.925538"
     inkscape:document-units="px"
     inkscape:current-layer="layer1"
     showgrid="false"
     inkscape:window-width="3775"
     inkscape:window-height="2136"
     inkscape:window-x="65"
     inkscape:window-y="24"
     inkscape:window-maximized="1"
     fit-margin-top="1"
     fit-margin-left="1"
     fit-margin-bottom="1"
     fit-margin-right="1" />
  <metadata
     id="metadata253745">
    <rdf:RDF>
      <cc:Work
         rdf:about="">
        <dc:format>image/svg+xml</dc:format>
        <dc:type
           rdf:resource="http://purl.org/dc/dcmitype/StillImage" />
        <dc:title />
      </cc:Work>
    </rdf:RDF>
  </metadata>
  <g
     inkscape:label="Layer 1"
     inkscape:groupmode="layer"
     id="layer1"
     transform="translate(-257.21363,-23.905813)">
    <g
       id="g337105"
       transform="matrix(1.2507407,0,0,1.2507407,-77.529555,-9.6605314)"
       style="stroke:#e9e9e9;stroke-opacity:1">
      <circle
         r="28.774437"
         cy="57.664173"
         cx="320.3273"
         id="path86912-0-9"
         style="opacity:1;fill:none;fill-opacity:1;stroke:#e9e9e9;stroke-width:2.88123226;stroke-linecap:round;stroke-linejoin:round;stroke-miterlimit:4;stroke-dasharray:none;stroke-dashoffset:0;stroke-opacity:1" />
      <path
         inkscape:connector-curvature="0"
         id="path86914-0-6"
         d="M 345.69832,71.123163 321.00721,56.867746 295.42542,71.637382"
         style="fill:none;fill-rule:evenodd;stroke:#e9e9e9;stroke-width:2.88123226;stroke-linecap:butt;stroke-linejoin:miter;stroke-miterlimit:4;stroke-dasharray:none;stroke-opacity:1" />
      <path
         sodipodi:nodetypes="cc"
         inkscape:connector-curvature="0"
         id="path86914-3-9-7"
         d="M 341.46374,73.383976 321.05985,61.603778"
         style="fill:none;fill-rule:evenodd;stroke:#e9e9e9;stroke-width:2.88123226;stroke-linecap:butt;stroke-linejoin:miter;stroke-miterlimit:4;stroke-dasharray:none;stroke-opacity:1" />
      <path
         sodipodi:nodetypes="cc"
         inkscape:connector-curvature="0"
         id="path86914-3-6-8-2"
         d="M 337.64553,76.394466 317.24163,64.614251"
         style="fill:none;fill-rule:evenodd;stroke:#e9e9e9;stroke-width:2.88123226;stroke-linecap:butt;stroke-linejoin:miter;stroke-miterlimit:4;stroke-dasharray:none;stroke-opacity:1" />
      <path
         transform="scale(-1,1)"
         sodipodi:open="true"
         d="m -295.29564,45.912739 a 9.6688309,9.6688309 0 0 1 -10.2206,3.582136 9.6688309,9.6688309 0 0 1 -7.13306,-8.149342 9.6688309,9.6688309 0 0 1 4.90395,-9.656271"
         sodipodi:end="4.205954"
         sodipodi:start="0.63923978"
         sodipodi:ry="9.6688309"
         sodipodi:rx="9.6688309"
         sodipodi:cy="40.144455"
         sodipodi:cx="-303.05536"
         sodipodi:type="arc"
         id="path86954-0-1"
         style="opacity:1;fill:none;fill-opacity:1;stroke:#e9e9e9;stroke-width:2.88123226;stroke-linecap:round;stroke-linejoin:round;stroke-miterlimit:4;stroke-dasharray:none;stroke-dashoffset:0;stroke-opacity:1" />
    </g>
    <g
       aria-label="RelaXed"
       style="font-style:normal;font-variant:normal;font-weight:normal;font-stretch:normal;line-height:0%;font-family:Montez;-inkscape-font-specification:Montez;letter-spacing:0px;word-spacing:0px;fill:#e9e9e9;fill-opacity:1;stroke:#e9e9e9;stroke-width:1.3971616;stroke-linecap:butt;stroke-linejoin:miter;stroke-miterlimit:4;stroke-dasharray:none;stroke-opacity:1"
       id="text86918-1">
      <path
         d="m 288.63589,118.12792 q 0,0.14991 -0.045,0.26985 -0.03,0.10494 -0.075,0.22487 -0.25486,0.59967 -0.5397,1.18435 -0.28484,0.56968 -0.44975,1.21433 -0.5547,2.24875 -0.83954,4.54248 -0.26985,2.29374 -0.3598,4.61745 0.97446,0.20989 1.73904,0.68962 0.77957,0.47974 1.51416,1.13937 1.42421,-0.59967 2.57858,-1.49917 1.16935,-0.8995 1.99389,-2.06886 0.82455,-1.16935 1.2743,-2.59356 0.44975,-1.42422 0.44975,-3.04332 0,-0.8995 -0.26985,-1.82899 -0.25486,-0.94448 -0.73459,-1.82899 -0.46475,-0.88451 -1.12438,-1.66408 -0.64465,-0.77957 -1.43921,-1.34925 -0.79456,-0.58468 -1.70905,-0.9145 -0.89951,-0.34481 -1.87397,-0.34481 -0.92948,0 -1.93393,0.34481 -0.98945,0.34481 -1.81399,0.97447 -0.82455,0.61466 -1.34926,1.48417 -0.52471,0.86952 -0.52471,1.90395 0,0.40478 0.0899,0.7346 0.10494,0.31482 0.20989,0.58467 0.11993,0.26985 0.20988,0.50972 0.10494,0.22488 0.10494,0.46474 0,0.43476 -0.29983,0.7346 -0.28484,0.28484 -0.70461,0.28484 -0.38979,0 -0.61466,-0.20988 -0.22488,-0.20989 -0.3598,-0.52471 -0.11994,-0.31483 -0.16491,-0.65964 -0.03,-0.3598 -0.03,-0.62965 0,-1.31927 0.62966,-2.38368 0.62965,-1.06441 1.6191,-1.91894 0.62965,-0.5397 1.2593,-0.94448 0.64465,-0.40478 1.31927,-0.68962 0.68962,-0.28484 1.42422,-0.41977 0.73459,-0.14991 1.57413,-0.14991 1.19933,0 2.30872,0.29983 1.12438,0.29983 2.09884,0.85453 0.98945,0.55469 1.79901,1.33426 0.82454,0.77957 1.40922,1.73904 0.58467,0.95947 0.8995,2.08385 0.32982,1.10938 0.32982,2.3387 0,1.814 -0.65964,3.34316 -0.64464,1.52915 -1.75403,2.74348 -1.10939,1.19934 -2.57857,2.08385 -1.46919,0.86952 -3.0883,1.36424 0.16491,0.16491 0.31483,0.31483 0.16491,0.14992 0.32982,0.31482 0.8995,0.88452 1.78401,1.87397 0.8995,0.98945 1.84398,1.96391 0.94448,0.97446 1.94892,1.85898 1.00445,0.8995 2.12883,1.57412 1.12438,0.68962 2.38368,1.0944 1.2743,0.40478 2.72849,0.40478 0.25486,0 0.47974,-0.03 0.23986,-0.015 0.49472,-0.0899 l 0.075,0.29984 q -0.65963,0.34481 -1.39423,0.49472 -0.73459,0.14992 -1.49917,0.14992 -1.58912,0 -2.8934,-0.32982 -1.30428,-0.31482 -2.41366,-0.8995 -1.10939,-0.58468 -2.05387,-1.40922 -0.94448,-0.80955 -1.814,-1.78401 -0.86952,-0.97447 -1.70905,-2.08385 -0.82455,-1.0944 -1.70906,-2.26375 -0.19489,-0.25486 -0.38978,-0.50972 -0.1799,-0.26985 -0.3598,-0.52471 -0.5397,0.09 -1.07941,0.14992 -0.52471,0.045 -1.04942,0.06 0,1.82899 0.0899,3.61301 0.09,1.78401 0.20989,3.50806 l -0.28484,0.09 q -0.61466,-1.58912 -0.94448,-3.47808 -0.31483,-1.88895 -0.47974,-3.80789 -0.38978,-0.06 -0.76457,-0.16491 -0.3748,-0.10494 -0.68962,-0.28485 -0.29984,-0.19489 -0.49473,-0.46474 -0.1799,-0.28484 -0.1799,-0.67463 0,-0.3598 0.1799,-0.61466 0.1799,-0.26985 0.46474,-0.43476 0.29984,-0.1799 0.64465,-0.26985 0.34481,-0.10494 0.68962,-0.13492 -0.015,-0.41977 -0.015,-0.82455 0,-0.41976 0,-0.80955 0,-0.61466 0,-1.52915 0.015,-0.9145 0.075,-1.94893 0.075,-1.03442 0.22488,-2.09883 0.14992,-1.07941 0.40478,-2.02389 0.26985,-0.94447 0.67462,-1.67907 0.41977,-0.73459 1.01944,-1.0794 0.22487,-0.13493 0.49473,-0.23987 0.26985,-0.11993 0.56968,-0.11993 0.46474,0 0.46474,0.41977 z m -5.36703,13.44756 q 0,0.20989 0.13493,0.37479 0.13492,0.16491 0.3598,0.29984 0.22487,0.11993 0.49472,0.20988 0.28485,0.0899 0.58468,0.14992 -0.03,-0.50972 -0.06,-1.00445 -0.015,-0.50971 -0.045,-1.00444 -0.25486,0 -0.52471,0.03 -0.25486,0.03 -0.46474,0.13493 -0.20989,0.10494 -0.34481,0.29983 -0.13493,0.1799 -0.13493,0.50972 z m 3.01333,1.16935 q 0.46475,0 0.9145,-0.06 0.44975,-0.06 0.88451,-0.16491 -0.37479,-0.50972 -0.80955,-0.92949 -0.41977,-0.43476 -0.97446,-0.68962 -0.015,0.46475 -0.015,0.92949 0,0.44975 0,0.91449 z"
         style="font-style:normal;font-variant:normal;font-weight:normal;font-stretch:normal;font-size:30.70302582px;line-height:1.25;font-family:Montez;-inkscape-font-specification:Montez;fill:#e9e9e9;fill-opacity:1;stroke:#e9e9e9;stroke-width:1.3971616;stroke-miterlimit:4;stroke-dasharray:none;stroke-opacity:1"
         id="path83597" />
      <path
         d="m 308.20008,132.96971 q -0.38979,0.56969 -0.94448,1.06441 -0.5397,0.49473 -1.19934,0.85453 -0.64464,0.3598 -1.36424,0.56968 -0.70461,0.20989 -1.42422,0.20989 -1.01943,0 -1.90394,-0.26985 -0.88451,-0.25486 -1.54415,-0.79456 -0.65963,-0.5397 -1.03443,-1.34926 -0.37479,-0.82454 -0.37479,-1.91894 0,-1.0794 0.38978,-2.00889 0.40478,-0.94447 1.0944,-1.63409 0.70461,-0.70461 1.64909,-1.10939 0.94448,-0.40477 2.02388,-0.40477 0.50972,0 0.94448,0.14991 0.44975,0.13493 0.77957,0.41977 0.32981,0.26985 0.50971,0.67463 0.1949,0.40477 0.1949,0.92948 0,0.62966 -0.25486,1.10939 -0.25486,0.47973 -0.67463,0.83954 -0.41977,0.3598 -0.95947,0.59966 -0.52471,0.23987 -1.10939,0.38979 -0.56968,0.14992 -1.13937,0.22487 -0.55469,0.06 -1.01943,0.06 h -0.3598 q 0.19489,1.36425 1.0794,2.08385 0.88451,0.7196 2.44365,0.7196 1.10939,0 2.15881,-0.38978 1.06441,-0.38979 1.91893,-1.07941 z m -7.76571,-1.84398 h 0.37479 q 0.53971,0 1.10939,-0.16491 0.56969,-0.1799 1.01944,-0.50972 0.46474,-0.34481 0.76457,-0.83953 0.29984,-0.49473 0.29984,-1.12438 0,-0.61466 -0.26985,-1.01944 -0.25486,-0.40477 -0.8995,-0.40477 -0.65964,0 -1.12438,0.40477 -0.44975,0.38979 -0.7346,0.97446 -0.28484,0.56969 -0.41976,1.21433 -0.11994,0.62965 -0.11994,1.12438 z"
         style="font-style:normal;font-variant:normal;font-weight:normal;font-stretch:normal;font-size:30.70302582px;line-height:1.25;font-family:Montez;-inkscape-font-specification:Montez;fill:#e9e9e9;fill-opacity:1;stroke:#e9e9e9;stroke-width:1.3971616;stroke-miterlimit:4;stroke-dasharray:none;stroke-opacity:1"
         id="path83599" />
      <path
         d="m 315.56101,133.46444 q -0.47974,0.98945 -1.34926,1.57413 -0.86951,0.56968 -1.9789,0.56968 -0.9145,0 -1.6341,-0.55469 -0.7196,-0.55469 -1.27429,-1.4542 -0.53971,-0.8995 -0.92949,-2.02388 -0.37479,-1.13937 -0.62965,-2.30872 -0.23987,-1.16936 -0.3598,-2.24876 -0.10494,-1.09439 -0.10494,-1.90395 0,-0.98945 0.10494,-2.17379 0.10494,-1.18435 0.34481,-2.38369 0.23986,-1.21433 0.61466,-2.3537 0.38978,-1.13937 0.92948,-2.00888 0.5547,-0.88452 1.2743,-1.40923 0.7196,-0.5397 1.64909,-0.5397 0.79456,0 1.28928,0.46475 0.49473,0.46474 0.77957,1.15436 0.28485,0.67462 0.3748,1.4392 0.10494,0.76458 0.10494,1.36425 0,1.6191 -0.38979,3.19323 -0.37479,1.55914 -1.04942,2.95337 -0.65963,1.37924 -1.55913,2.51861 -0.89951,1.12438 -1.93394,1.88895 0.20989,1.00445 0.49473,1.96392 0.29984,0.94447 0.7196,1.69406 0.41977,0.73459 0.95947,1.19934 0.5547,0.44975 1.25931,0.44975 0.70461,0 1.21433,-0.28484 0.50971,-0.28485 0.94447,-0.83954 z m -6.17659,-9.24989 q -0.015,0.32982 -0.015,0.80955 0.015,0.47974 0.045,1.06441 0.045,0.56969 0.11993,1.22933 0.075,0.65963 0.19489,1.34925 1.00445,-0.8995 1.70906,-1.9939 0.70461,-1.09439 1.15436,-2.3537 0.44975,-1.27429 0.64464,-2.66852 0.20989,-1.40922 0.20989,-2.92339 0,-0.19489 -0.015,-0.50971 0,-0.31483 -0.045,-0.67463 -0.045,-0.3598 -0.13493,-0.7196 -0.075,-0.3598 -0.22487,-0.64465 -0.13493,-0.29983 -0.3598,-0.47973 -0.20989,-0.19489 -0.50972,-0.19489 -0.56969,0 -1.00444,0.56968 -0.41977,0.55469 -0.7346,1.42421 -0.29983,0.86952 -0.50972,1.91894 -0.19489,1.04942 -0.31482,2.02388 -0.11994,0.95947 -0.16491,1.72405 -0.045,0.76458 -0.045,1.04942 z"
         style="font-style:normal;font-variant:normal;font-weight:normal;font-stretch:normal;font-size:30.70302582px;line-height:1.25;font-family:Montez;-inkscape-font-specification:Montez;fill:#e9e9e9;fill-opacity:1;stroke:#e9e9e9;stroke-width:1.3971616;stroke-miterlimit:4;stroke-dasharray:none;stroke-opacity:1"
         id="path83601" />
      <path
         d="m 322.4422,127.25787 q 0,0.16491 -0.11993,0.29983 -0.11993,0.11994 -0.28484,0.11994 -0.13493,0 -0.28484,-0.075 -0.14992,-0.09 -0.34481,-0.19489 -0.1799,-0.10495 -0.43476,-0.17991 -0.23987,-0.09 -0.5547,-0.09 -0.73459,0 -1.31927,0.46475 -0.56968,0.44975 -0.97446,1.12438 -0.38978,0.67462 -0.59967,1.4392 -0.20988,0.76458 -0.20988,1.37924 0,0.43476 0.075,0.85453 0.075,0.40477 0.25486,0.74958 0.19489,0.32982 0.52471,0.5397 0.32981,0.1949 0.83953,0.1949 0.5397,0 1.03443,-0.1949 0.49473,-0.20988 0.92949,-0.5397 0.015,-0.47973 0.14991,-1.00444 0.14992,-0.53971 0.3748,-1.04942 0.22487,-0.52471 0.50972,-0.98946 0.29983,-0.46474 0.61466,-0.82454 l 0.19489,0.11993 q -0.16491,0.50972 -0.23987,1.04942 -0.075,0.5397 -0.075,1.06441 0,0.53971 0.09,1.01944 0.0899,0.47974 0.31483,0.83954 0.22487,0.34481 0.61466,0.55469 0.38978,0.19489 1.00444,0.19489 0.74959,0 1.37924,-0.34481 0.62965,-0.34481 1.10939,-0.86952 l 0.11993,0.06 q -0.26985,0.52471 -0.70461,1.00445 -0.43476,0.47973 -0.97446,0.86951 -0.52471,0.3748 -1.12438,0.59967 -0.59967,0.22488 -1.18434,0.22488 -0.82455,0 -1.34926,-0.47974 -0.52471,-0.46474 -0.7196,-1.18434 -0.62965,0.62965 -1.40922,1.06441 -0.76458,0.41977 -1.61911,0.41977 -0.62965,0 -1.12438,-0.23987 -0.47973,-0.22487 -0.80955,-0.61466 -0.32982,-0.38978 -0.50972,-0.91449 -0.1649,-0.53971 -0.1649,-1.12438 0,-0.67463 0.20988,-1.37924 0.22488,-0.7196 0.59967,-1.40922 0.38978,-0.68962 0.91449,-1.30428 0.52471,-0.61466 1.13937,-1.0794 0.62965,-0.46475 1.31927,-0.7346 0.68962,-0.26985 1.40922,-0.26985 0.16491,0 0.40478,0.045 0.23987,0.03 0.46474,0.11993 0.22488,0.09 0.3748,0.25486 0.1649,0.16491 0.1649,0.41977 z"
         style="font-style:normal;font-variant:normal;font-weight:normal;font-stretch:normal;font-size:30.70302582px;line-height:1.25;font-family:Montez;-inkscape-font-specification:Montez;fill:#e9e9e9;fill-opacity:1;stroke:#e9e9e9;stroke-width:1.3971616;stroke-miterlimit:4;stroke-dasharray:none;stroke-opacity:1"
         id="path83603" />
      <path
         d="m 344.24015,114.5449 q 0.0899,0 0.1799,0.06 0.0899,0.045 0.0899,0.1799 0,0.11994 -0.075,0.25486 -0.06,0.13493 -0.16491,0.26985 -0.10494,0.13493 -0.20988,0.25486 -0.10494,0.11994 -0.16491,0.20989 -0.80955,0.92948 -1.6191,1.799 -0.80956,0.86952 -1.60412,1.814 -1.96391,2.32372 -3.73293,4.75237 -1.76902,2.42866 -3.47808,4.94727 2.05387,3.2532 4.51251,6.16159 2.45864,2.90839 5.27708,5.33705 l -0.1799,0.26985 q -1.51416,-0.91449 -2.96836,-2.03887 -1.43921,-1.10939 -2.81844,-2.38368 -1.36425,-1.25931 -2.63854,-2.65354 -1.2743,-1.40922 -2.41367,-2.87841 -1.64909,2.45865 -3.2532,4.90229 -1.60411,2.44365 -3.28319,4.87231 l -0.34481,-0.25486 q 1.52916,-2.62355 3.05831,-5.21711 1.54415,-2.57858 3.14826,-5.18714 -1.70905,-2.30872 -3.04331,-4.6924 -0.49473,-0.88451 -1.01944,-1.91894 -0.50972,-1.04942 -0.92949,-2.14382 -0.40477,-1.10938 -0.67462,-2.21877 -0.26985,-1.12438 -0.26985,-2.1738 0,-0.23987 0.06,-0.62965 0.075,-0.38978 0.20989,-0.74959 0.14991,-0.37479 0.3598,-0.64464 0.22487,-0.26985 0.5397,-0.26985 0.1799,0 0.29983,0.10494 0.11994,0.0899 0.1949,0.23987 0.0899,0.14992 0.13492,0.31483 0.045,0.14991 0.075,0.25485 0.82454,3.22322 2.1738,6.38647 1.34925,3.14826 3.14826,6.1616 1.39423,-2.18879 2.83343,-4.28763 1.4542,-2.11383 3.02833,-4.1677 0.23986,-0.32982 0.58467,-0.76458 0.3598,-0.44975 0.77957,-0.92948 0.41977,-0.49473 0.88451,-0.98945 0.46475,-0.49473 0.92949,-0.9145 0.47973,-0.43476 0.92949,-0.76458 0.44975,-0.32981 0.83953,-0.49472 0.13493,-0.075 0.28484,-0.11994 0.16491,-0.06 0.32982,-0.06 z"
         style="font-style:normal;font-variant:normal;font-weight:normal;font-stretch:normal;font-size:30.70302582px;line-height:1.25;font-family:Montez;-inkscape-font-specification:Montez;fill:#e9e9e9;fill-opacity:1;stroke:#e9e9e9;stroke-width:1.3971616;stroke-miterlimit:4;stroke-dasharray:none;stroke-opacity:1"
         id="path83605" />
      <path
         d="m 351.55611,132.96971 q -0.38979,0.56969 -0.94448,1.06441 -0.5397,0.49473 -1.19934,0.85453 -0.64464,0.3598 -1.36424,0.56968 -0.70461,0.20989 -1.42422,0.20989 -1.01943,0 -1.90394,-0.26985 -0.88451,-0.25486 -1.54415,-0.79456 -0.65963,-0.5397 -1.03443,-1.34926 -0.37479,-0.82454 -0.37479,-1.91894 0,-1.0794 0.38978,-2.00889 0.40478,-0.94447 1.0944,-1.63409 0.70461,-0.70461 1.64909,-1.10939 0.94448,-0.40477 2.02388,-0.40477 0.50972,0 0.94448,0.14991 0.44975,0.13493 0.77957,0.41977 0.32981,0.26985 0.50971,0.67463 0.1949,0.40477 0.1949,0.92948 0,0.62966 -0.25486,1.10939 -0.25486,0.47973 -0.67463,0.83954 -0.41977,0.3598 -0.95947,0.59966 -0.52471,0.23987 -1.10939,0.38979 -0.56968,0.14992 -1.13937,0.22487 -0.55469,0.06 -1.01943,0.06 h -0.3598 q 0.19489,1.36425 1.0794,2.08385 0.88451,0.7196 2.44365,0.7196 1.10938,0 2.1588,-0.38978 1.06442,-0.38979 1.91894,-1.07941 z m -7.76571,-1.84398 h 0.37479 q 0.53971,0 1.10939,-0.16491 0.56969,-0.1799 1.01944,-0.50972 0.46474,-0.34481 0.76457,-0.83953 0.29984,-0.49473 0.29984,-1.12438 0,-0.61466 -0.26985,-1.01944 -0.25486,-0.40477 -0.89951,-0.40477 -0.65963,0 -1.12437,0.40477 -0.44975,0.38979 -0.7346,0.97446 -0.28484,0.56969 -0.41977,1.21433 -0.11993,0.62965 -0.11993,1.12438 z"
         style="font-style:normal;font-variant:normal;font-weight:normal;font-stretch:normal;font-family:Montez;-inkscape-font-specification:Montez;fill:#e9e9e9;fill-opacity:1;stroke:#e9e9e9;stroke-width:1.3971616;stroke-miterlimit:4;stroke-dasharray:none;stroke-opacity:1"
         id="path83607" />
      <path
         d="m 364.68885,132.96971 q -0.23987,0.49473 -0.59967,0.8995 -0.3598,0.38979 -0.80955,0.67463 -0.44975,0.26985 -0.95947,0.41977 -0.50972,0.14992 -1.06441,0.14992 -1.16936,0 -1.9939,-0.56969 -0.80955,-0.56968 -1.36425,-1.48418 -0.40477,0.44975 -0.8995,0.8995 -0.47973,0.43476 -1.03443,0.77957 -0.5397,0.32982 -1.12438,0.5397 -0.58467,0.20989 -1.16935,0.20989 -0.70461,0 -1.2593,-0.28484 -0.5547,-0.28485 -0.94448,-0.74959 -0.38979,-0.47973 -0.59967,-1.0794 -0.20988,-0.61466 -0.20988,-1.2743 0,-0.98945 0.43476,-1.9939 0.44975,-1.00444 1.16935,-1.81399 0.73459,-0.82455 1.67907,-1.33427 0.94448,-0.50971 1.96392,-0.50971 0.29983,0 0.52471,0.06 v -0.62965 q 0,-0.43476 0.03,-1.15436 0.03,-0.7196 0.11993,-1.58912 0.0899,-0.88451 0.22488,-1.84398 0.14992,-0.97446 0.37479,-1.91894 0.23987,-0.95947 0.55469,-1.814 0.31483,-0.86952 0.7346,-1.51416 0.41977,-0.65964 0.95947,-1.04942 0.5397,-0.38979 1.21433,-0.38979 0.79456,0 1.28928,0.46475 0.49473,0.46474 0.77957,1.15436 0.28485,0.67463 0.3748,1.4392 0.10494,0.76458 0.10494,1.36425 0,0.77957 -0.14992,1.814 -0.14992,1.01943 -0.41977,2.17379 -0.26985,1.13937 -0.64464,2.33871 -0.37479,1.19934 -0.80955,2.30872 -0.43476,1.10939 -0.94448,2.06886 -0.49473,0.94448 -1.00445,1.60411 0.1949,0.58468 0.46475,1.07941 0.28484,0.49472 0.65963,0.85452 0.3748,0.35981 0.85453,0.56969 0.47973,0.19489 1.0944,0.19489 1.40922,0 2.30872,-1.12438 z m -6.1466,-8.35038 q 0,0.5397 0,1.2593 0,0.70461 0.03,1.49917 0.045,0.79456 0.13493,1.6341 0.10494,0.82454 0.29983,1.60411 0.62965,-1.21433 1.15436,-2.65353 0.52471,-1.4542 0.8995,-2.96836 0.38979,-1.52915 0.59967,-3.04332 0.20989,-1.51416 0.20989,-2.86341 0,-0.28485 -0.03,-0.82455 -0.03,-0.5397 -0.16491,-1.06441 -0.13492,-0.5397 -0.40477,-0.92949 -0.26985,-0.40477 -0.7346,-0.40477 -0.3598,0 -0.64464,0.34481 -0.28484,0.32981 -0.49473,0.8995 -0.20988,0.55469 -0.3598,1.27429 -0.13492,0.71961 -0.23986,1.49918 -0.0899,0.77957 -0.14992,1.54414 -0.045,0.76458 -0.075,1.42422 -0.015,0.64464 -0.03,1.12437 0,0.46475 0,0.64465 z m -3.77791,9.23489 q 0.85452,0 1.57413,-0.32982 0.73459,-0.32981 1.33426,-0.86952 -0.28484,-0.55469 -0.49473,-1.18434 -0.19489,-0.64464 -0.34481,-1.28929 -0.13492,-0.65963 -0.22487,-1.31927 -0.075,-0.65963 -0.11994,-1.27429 -0.1799,-0.1949 -0.44975,-0.31483 -0.26985,-0.13493 -0.65963,-0.13493 -0.70461,0 -1.25931,0.38979 -0.5397,0.37479 -0.91449,0.95947 -0.3748,0.56968 -0.56969,1.2593 -0.19489,0.67463 -0.19489,1.28929 0,0.56968 0.11993,1.09439 0.13493,0.50972 0.41977,0.89951 0.28484,0.37479 0.7196,0.59967 0.44976,0.22487 1.06442,0.22487 z"
         style="font-style:normal;font-variant:normal;font-weight:normal;font-stretch:normal;font-family:Montez;-inkscape-font-specification:Montez;fill:#e9e9e9;fill-opacity:1;stroke:#e9e9e9;stroke-width:1.3971616;stroke-miterlimit:4;stroke-dasharray:none;stroke-opacity:1"
         id="path83609" />
    </g>
  </g>
</svg>
