<?xml version="1.0" encoding="utf-8" standalone="no"?>
<!DOCTYPE svg PUBLIC "-//W3C//DTD SVG 1.1//EN"
  "http://www.w3.org/Graphics/SVG/1.1/DTD/svg11.dtd">
<!-- Created with matplotlib (http://matplotlib.org/) -->
<svg height="238pt" version="1.1" viewBox="0 0 356 238" width="356pt" xmlns="http://www.w3.org/2000/svg" xmlns:xlink="http://www.w3.org/1999/xlink">
 <defs>
  <style type="text/css">
*{stroke-linecap:butt;stroke-linejoin:round;}
  </style>
 </defs>
 <g id="figure_1">
  <g id="patch_1">
   <path d="M 0 238.84 
L 356.2 238.84 
L 356.2 0 
L 0 0 
z
" style="fill:#ffffff;"/>
  </g>
  <g id="patch_2">
   <path d="M 10.7 228.14 
L 345.5 228.14 
L 345.5 10.7 
L 10.7 10.7 
z
" style="fill:#ffffff;"/>
  </g>
  <g id="pane3d_1">
   <g id="patch_3">
    <path d="M 55.082914 180.093423 
L 150.904425 126.782062 
L 149.309099 24.912801 
L 48.14491 72.811962 
" style="fill:#f2f2f2;opacity:0.5;stroke:#f2f2f2;stroke-linejoin:miter;"/>
   </g>
  </g>
  <g id="pane3d_2">
   <g id="patch_4">
    <path d="M 150.904425 126.782062 
L 306.126265 156.586553 
L 312.620561 51.645466 
L 149.309099 24.912801 
" style="fill:#e6e6e6;opacity:0.5;stroke:#e6e6e6;stroke-linejoin:miter;"/>
   </g>
  </g>
  <g id="pane3d_3">
   <g id="patch_5">
    <path d="M 55.082914 180.093423 
L 218.397263 214.805609 
L 306.126265 156.586553 
L 150.904425 126.782062 
" style="fill:#ececec;opacity:0.5;stroke:#ececec;stroke-linejoin:miter;"/>
   </g>
  </g>
  <g id="axis3d_1">
   <g id="line2d_1">
    <path d="M 55.082914 180.093423 
L 218.397263 214.805609 
" style="fill:none;stroke:#000000;stroke-linecap:square;stroke-width:0.8;"/>
   </g>
   <g id="Line3DCollection_1">
    <path d="M 65.039611 182.209702 
L 160.397598 128.604867 
L 159.276615 26.544396 
" style="fill:none;stroke:#b0b0b0;stroke-width:0.8;"/>
    <path d="M 88.206717 187.133831 
L 182.47114 132.843257 
L 182.463364 30.339865 
" style="fill:none;stroke:#b0b0b0;stroke-width:0.8;"/>
    <path d="M 111.682393 192.123546 
L 204.817252 137.133984 
L 205.951057 34.184596 
" style="fill:none;stroke:#b0b0b0;stroke-width:0.8;"/>
    <path d="M 135.472848 197.180166 
L 227.441014 141.478023 
L 229.745591 38.079554 
" style="fill:none;stroke:#b0b0b0;stroke-width:0.8;"/>
    <path d="M 159.584454 202.305047 
L 250.347635 145.876374 
L 253.853018 42.02573 
" style="fill:none;stroke:#b0b0b0;stroke-width:0.8;"/>
    <path d="M 184.023759 207.49958 
L 273.54245 150.330062 
L 278.279552 46.024141 
" style="fill:none;stroke:#b0b0b0;stroke-width:0.8;"/>
    <path d="M 208.797488 212.765194 
L 297.030935 154.840138 
L 303.031571 50.075831 
" style="fill:none;stroke:#b0b0b0;stroke-width:0.8;"/>
   </g>
   <g id="xtick_1">
    <g id="line2d_2">
     <path d="M 65.861169 181.747869 
L 63.393431 183.135091 
" style="fill:none;stroke:#000000;stroke-linecap:square;stroke-width:0.8;"/>
    </g>
    <g id="text_1">
     <!-- −30 -->
     <defs>
      <path d="M 10.59375 35.5 
L 73.1875 35.5 
L 73.1875 27.203125 
L 10.59375 27.203125 
z
" id="DejaVuSans-2212"/>
      <path d="M 40.578125 39.3125 
Q 47.65625 37.796875 51.625 33 
Q 55.609375 28.21875 55.609375 21.1875 
Q 55.609375 10.40625 48.1875 4.484375 
Q 40.765625 -1.421875 27.09375 -1.421875 
Q 22.515625 -1.421875 17.65625 -0.515625 
Q 12.796875 0.390625 7.625 2.203125 
L 7.625 11.71875 
Q 11.71875 9.328125 16.59375 8.109375 
Q 21.484375 6.890625 26.8125 6.890625 
Q 36.078125 6.890625 40.9375 10.546875 
Q 45.796875 14.203125 45.796875 21.1875 
Q 45.796875 27.640625 41.28125 31.265625 
Q 36.765625 34.90625 28.71875 34.90625 
L 20.21875 34.90625 
L 20.21875 43.015625 
L 29.109375 43.015625 
Q 36.375 43.015625 40.234375 45.921875 
Q 44.09375 48.828125 44.09375 54.296875 
Q 44.09375 59.90625 40.109375 62.90625 
Q 36.140625 65.921875 28.71875 65.921875 
Q 24.65625 65.921875 20.015625 65.03125 
Q 15.375 64.15625 9.8125 62.3125 
L 9.8125 71.09375 
Q 15.4375 72.65625 20.34375 73.4375 
Q 25.25 74.21875 29.59375 74.21875 
Q 40.828125 74.21875 47.359375 69.109375 
Q 53.90625 64.015625 53.90625 55.328125 
Q 53.90625 49.265625 50.4375 45.09375 
Q 46.96875 40.921875 40.578125 39.3125 
z
" id="DejaVuSans-33"/>
      <path d="M 31.78125 66.40625 
Q 24.171875 66.40625 20.328125 58.90625 
Q 16.5 51.421875 16.5 36.375 
Q 16.5 21.390625 20.328125 13.890625 
Q 24.171875 6.390625 31.78125 6.390625 
Q 39.453125 6.390625 43.28125 13.890625 
Q 47.125 21.390625 47.125 36.375 
Q 47.125 51.421875 43.28125 58.90625 
Q 39.453125 66.40625 31.78125 66.40625 
z
M 31.78125 74.21875 
Q 44.046875 74.21875 50.515625 64.515625 
Q 56.984375 54.828125 56.984375 36.375 
Q 56.984375 17.96875 50.515625 8.265625 
Q 44.046875 -1.421875 31.78125 -1.421875 
Q 19.53125 -1.421875 13.0625 8.265625 
Q 6.59375 17.96875 6.59375 36.375 
Q 6.59375 54.828125 13.0625 64.515625 
Q 19.53125 74.21875 31.78125 74.21875 
z
" id="DejaVuSans-30"/>
     </defs>
     <g transform="translate(46.740615 202.60444)scale(0.1 -0.1)">
      <use xlink:href="#DejaVuSans-2212"/>
      <use x="83.789062" xlink:href="#DejaVuSans-33"/>
      <use x="147.412109" xlink:href="#DejaVuSans-30"/>
     </g>
    </g>
   </g>
   <g id="xtick_2">
    <g id="line2d_3">
     <path d="M 89.019237 186.665869 
L 86.578626 188.071512 
" style="fill:none;stroke:#000000;stroke-linecap:square;stroke-width:0.8;"/>
    </g>
    <g id="text_2">
     <!-- −20 -->
     <defs>
      <path d="M 19.1875 8.296875 
L 53.609375 8.296875 
L 53.609375 0 
L 7.328125 0 
L 7.328125 8.296875 
Q 12.9375 14.109375 22.625 23.890625 
Q 32.328125 33.6875 34.8125 36.53125 
Q 39.546875 41.84375 41.421875 45.53125 
Q 43.3125 49.21875 43.3125 52.78125 
Q 43.3125 58.59375 39.234375 62.25 
Q 35.15625 65.921875 28.609375 65.921875 
Q 23.96875 65.921875 18.8125 64.3125 
Q 13.671875 62.703125 7.8125 59.421875 
L 7.8125 69.390625 
Q 13.765625 71.78125 18.9375 73 
Q 24.125 74.21875 28.421875 74.21875 
Q 39.75 74.21875 46.484375 68.546875 
Q 53.21875 62.890625 53.21875 53.421875 
Q 53.21875 48.921875 51.53125 44.890625 
Q 49.859375 40.875 45.40625 35.40625 
Q 44.1875 33.984375 37.640625 27.21875 
Q 31.109375 20.453125 19.1875 8.296875 
z
" id="DejaVuSans-32"/>
     </defs>
     <g transform="translate(69.904707 207.623676)scale(0.1 -0.1)">
      <use xlink:href="#DejaVuSans-2212"/>
      <use x="83.789062" xlink:href="#DejaVuSans-32"/>
      <use x="147.412109" xlink:href="#DejaVuSans-30"/>
     </g>
    </g>
   </g>
   <g id="xtick_3">
    <g id="line2d_4">
     <path d="M 112.485561 191.649332 
L 110.073022 193.073766 
" style="fill:none;stroke:#000000;stroke-linecap:square;stroke-width:0.8;"/>
    </g>
    <g id="text_3">
     <!-- −10 -->
     <defs>
      <path d="M 12.40625 8.296875 
L 28.515625 8.296875 
L 28.515625 63.921875 
L 10.984375 60.40625 
L 10.984375 69.390625 
L 28.421875 72.90625 
L 38.28125 72.90625 
L 38.28125 8.296875 
L 54.390625 8.296875 
L 54.390625 0 
L 12.40625 0 
z
" id="DejaVuSans-31"/>
     </defs>
     <g transform="translate(93.377978 212.709905)scale(0.1 -0.1)">
      <use xlink:href="#DejaVuSans-2212"/>
      <use x="83.789062" xlink:href="#DejaVuSans-31"/>
      <use x="147.412109" xlink:href="#DejaVuSans-30"/>
     </g>
    </g>
   </g>
   <g id="xtick_4">
    <g id="line2d_5">
     <path d="M 136.266339 196.699575 
L 133.882847 198.143179 
" style="fill:none;stroke:#000000;stroke-linecap:square;stroke-width:0.8;"/>
    </g>
    <g id="text_4">
     <!-- 0 -->
     <g transform="translate(124.537754 217.864479)scale(0.1 -0.1)">
      <use xlink:href="#DejaVuSans-30"/>
     </g>
    </g>
   </g>
   <g id="xtick_5">
    <g id="line2d_6">
     <path d="M 160.367933 201.817948 
L 158.014495 203.281111 
" style="fill:none;stroke:#000000;stroke-linecap:square;stroke-width:0.8;"/>
    </g>
    <g id="text_5">
     <!-- 10 -->
     <g transform="translate(145.466998 223.088783)scale(0.1 -0.1)">
      <use xlink:href="#DejaVuSans-31"/>
      <use x="63.623047" xlink:href="#DejaVuSans-30"/>
     </g>
    </g>
   </g>
   <g id="xtick_6">
    <g id="line2d_7">
     <path d="M 184.796879 207.00584 
L 182.474536 208.488963 
" style="fill:none;stroke:#000000;stroke-linecap:square;stroke-width:0.8;"/>
    </g>
    <g id="text_6">
     <!-- 20 -->
     <g transform="translate(169.905877 228.384242)scale(0.1 -0.1)">
      <use xlink:href="#DejaVuSans-32"/>
      <use x="63.623047" xlink:href="#DejaVuSans-30"/>
     </g>
    </g>
   </g>
   <g id="xtick_7">
    <g id="line2d_8">
     <path d="M 209.559893 212.264677 
L 207.269719 213.768171 
" style="fill:none;stroke:#000000;stroke-linecap:square;stroke-width:0.8;"/>
    </g>
    <g id="text_7">
     <!-- 30 -->
     <g transform="translate(194.679897 233.75232)scale(0.1 -0.1)">
      <use xlink:href="#DejaVuSans-33"/>
      <use x="63.623047" xlink:href="#DejaVuSans-30"/>
     </g>
    </g>
   </g>
  </g>
  <g id="axis3d_2">
   <g id="line2d_9">
    <path d="M 306.126265 156.586553 
L 218.397263 214.805609 
" style="fill:none;stroke:#000000;stroke-linecap:square;stroke-width:0.8;"/>
   </g>
   <g id="Line3DCollection_2">
    <path d="M 55.071961 69.532146 
L 61.620339 176.456254 
L 224.401308 210.821182 
" style="fill:none;stroke:#b0b0b0;stroke-width:0.8;"/>
    <path d="M 70.7689 62.099969 
L 76.447277 168.207122 
L 238.008342 201.79123 
" style="fill:none;stroke:#b0b0b0;stroke-width:0.8;"/>
    <path d="M 86.100739 54.840658 
L 90.946666 160.140227 
L 251.301112 192.969831 
" style="fill:none;stroke:#b0b0b0;stroke-width:0.8;"/>
    <path d="M 101.08007 47.748253 
L 105.129239 152.249595 
L 264.29038 184.349843 
" style="fill:none;stroke:#b0b0b0;stroke-width:0.8;"/>
    <path d="M 115.718912 40.817063 
L 119.00527 144.529511 
L 276.986425 175.924446 
" style="fill:none;stroke:#b0b0b0;stroke-width:0.8;"/>
    <path d="M 130.028744 34.041652 
L 132.58459 136.974506 
L 289.399063 167.687123 
" style="fill:none;stroke:#b0b0b0;stroke-width:0.8;"/>
    <path d="M 144.020535 27.416827 
L 145.876615 129.57934 
L 301.53768 159.631648 
" style="fill:none;stroke:#b0b0b0;stroke-width:0.8;"/>
   </g>
   <g id="xtick_8">
    <g id="line2d_10">
     <path d="M 223.038974 210.533578 
L 227.12902 211.397033 
" style="fill:none;stroke:#000000;stroke-linecap:square;stroke-width:0.8;"/>
    </g>
    <g id="text_8">
     <!-- −30 -->
     <g transform="translate(227.284225 229.630052)scale(0.1 -0.1)">
      <use xlink:href="#DejaVuSans-2212"/>
      <use x="83.789062" xlink:href="#DejaVuSans-33"/>
      <use x="147.412109" xlink:href="#DejaVuSans-30"/>
     </g>
    </g>
   </g>
   <g id="xtick_9">
    <g id="line2d_11">
     <path d="M 236.656914 201.510306 
L 240.714182 202.3537 
" style="fill:none;stroke:#000000;stroke-linecap:square;stroke-width:0.8;"/>
    </g>
    <g id="text_9">
     <!-- −20 -->
     <g transform="translate(240.726651 220.474339)scale(0.1 -0.1)">
      <use xlink:href="#DejaVuSans-2212"/>
      <use x="83.789062" xlink:href="#DejaVuSans-32"/>
      <use x="147.412109" xlink:href="#DejaVuSans-30"/>
     </g>
    </g>
   </g>
   <g id="xtick_10">
    <g id="line2d_12">
     <path d="M 249.960453 192.695356 
L 253.985357 193.519381 
" style="fill:none;stroke:#000000;stroke-linecap:square;stroke-width:0.8;"/>
    </g>
    <g id="text_10">
     <!-- −10 -->
     <g transform="translate(253.858789 211.529966)scale(0.1 -0.1)">
      <use xlink:href="#DejaVuSans-2212"/>
      <use x="83.789062" xlink:href="#DejaVuSans-31"/>
      <use x="147.412109" xlink:href="#DejaVuSans-30"/>
     </g>
    </g>
   </g>
   <g id="xtick_11">
    <g id="line2d_13">
     <path d="M 262.960353 184.081598 
L 266.953306 184.886913 
" style="fill:none;stroke:#000000;stroke-linecap:square;stroke-width:0.8;"/>
    </g>
    <g id="text_11">
     <!-- 0 -->
     <g transform="translate(274.062354 202.789697)scale(0.1 -0.1)">
      <use xlink:href="#DejaVuSans-30"/>
     </g>
    </g>
   </g>
   <g id="xtick_12">
    <g id="line2d_14">
     <path d="M 275.666893 175.662221 
L 279.628303 176.449455 
" style="fill:none;stroke:#000000;stroke-linecap:square;stroke-width:0.8;"/>
    </g>
    <g id="text_12">
     <!-- 10 -->
     <g transform="translate(283.424049 194.246626)scale(0.1 -0.1)">
      <use xlink:href="#DejaVuSans-31"/>
      <use x="63.623047" xlink:href="#DejaVuSans-30"/>
     </g>
    </g>
   </g>
   <g id="xtick_13">
    <g id="line2d_15">
     <path d="M 288.089893 167.430718 
L 292.020165 168.200475 
" style="fill:none;stroke:#000000;stroke-linecap:square;stroke-width:0.8;"/>
    </g>
    <g id="text_13">
     <!-- 20 -->
     <g transform="translate(295.687158 185.894153)scale(0.1 -0.1)">
      <use xlink:href="#DejaVuSans-32"/>
      <use x="63.623047" xlink:href="#DejaVuSans-30"/>
     </g>
    </g>
   </g>
   <g id="xtick_14">
    <g id="line2d_16">
     <path d="M 300.238737 159.380871 
L 304.138275 160.133725 
" style="fill:none;stroke:#000000;stroke-linecap:square;stroke-width:0.8;"/>
    </g>
    <g id="text_14">
     <!-- 30 -->
     <g transform="translate(307.679692 177.72597)scale(0.1 -0.1)">
      <use xlink:href="#DejaVuSans-33"/>
      <use x="63.623047" xlink:href="#DejaVuSans-30"/>
     </g>
    </g>
   </g>
  </g>
  <g id="axis3d_3">
   <g id="line2d_17">
    <path d="M 306.126265 156.586553 
L 312.620561 51.645466 
" style="fill:none;stroke:#000000;stroke-linecap:square;stroke-width:0.8;"/>
   </g>
   <g id="Line3DCollection_3">
    <path d="M 306.75383 146.445762 
L 150.74996 116.918723 
L 54.413514 169.742584 
" style="fill:none;stroke:#b0b0b0;stroke-width:0.8;"/>
    <path d="M 307.514043 134.16151 
L 150.562933 104.976134 
L 53.602325 157.199277 
" style="fill:none;stroke:#b0b0b0;stroke-width:0.8;"/>
    <path d="M 308.283625 121.725866 
L 150.373698 92.892568 
L 52.780806 144.496237 
" style="fill:none;stroke:#b0b0b0;stroke-width:0.8;"/>
    <path d="M 309.06275 109.136011 
L 150.182216 80.665514 
L 51.948759 131.630392 
" style="fill:none;stroke:#b0b0b0;stroke-width:0.8;"/>
    <path d="M 309.851597 96.389062 
L 149.988446 68.292402 
L 51.105979 118.598593 
" style="fill:none;stroke:#b0b0b0;stroke-width:0.8;"/>
    <path d="M 310.650349 83.482057 
L 149.792348 55.770597 
L 50.252258 105.397609 
" style="fill:none;stroke:#b0b0b0;stroke-width:0.8;"/>
    <path d="M 311.459193 70.411965 
L 149.593879 43.097405 
L 49.38738 92.024122 
" style="fill:none;stroke:#b0b0b0;stroke-width:0.8;"/>
    <path d="M 312.278323 57.175673 
L 149.392996 30.270062 
L 48.511127 78.47473 
" style="fill:none;stroke:#b0b0b0;stroke-width:0.8;"/>
   </g>
   <g id="xtick_15">
    <g id="line2d_18">
     <path d="M 305.451982 146.199359 
L 309.360245 146.939081 
" style="fill:none;stroke:#000000;stroke-linecap:square;stroke-width:0.8;"/>
    </g>
    <g id="text_15">
     <!-- −60 -->
     <defs>
      <path d="M 33.015625 40.375 
Q 26.375 40.375 22.484375 35.828125 
Q 18.609375 31.296875 18.609375 23.390625 
Q 18.609375 15.53125 22.484375 10.953125 
Q 26.375 6.390625 33.015625 6.390625 
Q 39.65625 6.390625 43.53125 10.953125 
Q 47.40625 15.53125 47.40625 23.390625 
Q 47.40625 31.296875 43.53125 35.828125 
Q 39.65625 40.375 33.015625 40.375 
z
M 52.59375 71.296875 
L 52.59375 62.3125 
Q 48.875 64.0625 45.09375 64.984375 
Q 41.3125 65.921875 37.59375 65.921875 
Q 27.828125 65.921875 22.671875 59.328125 
Q 17.53125 52.734375 16.796875 39.40625 
Q 19.671875 43.65625 24.015625 45.921875 
Q 28.375 48.1875 33.59375 48.1875 
Q 44.578125 48.1875 50.953125 41.515625 
Q 57.328125 34.859375 57.328125 23.390625 
Q 57.328125 12.15625 50.6875 5.359375 
Q 44.046875 -1.421875 33.015625 -1.421875 
Q 20.359375 -1.421875 13.671875 8.265625 
Q 6.984375 17.96875 6.984375 36.375 
Q 6.984375 53.65625 15.1875 63.9375 
Q 23.390625 74.21875 37.203125 74.21875 
Q 40.921875 74.21875 44.703125 73.484375 
Q 48.484375 72.75 52.59375 71.296875 
z
" id="DejaVuSans-36"/>
     </defs>
     <g transform="translate(315.687999 152.245145)scale(0.1 -0.1)">
      <use xlink:href="#DejaVuSans-2212"/>
      <use x="83.789062" xlink:href="#DejaVuSans-36"/>
      <use x="147.412109" xlink:href="#DejaVuSans-30"/>
     </g>
    </g>
   </g>
   <g id="xtick_16">
    <g id="line2d_19">
     <path d="M 306.203959 133.917898 
L 310.136964 134.649248 
" style="fill:none;stroke:#000000;stroke-linecap:square;stroke-width:0.8;"/>
    </g>
    <g id="text_16">
     <!-- −40 -->
     <defs>
      <path d="M 37.796875 64.3125 
L 12.890625 25.390625 
L 37.796875 25.390625 
z
M 35.203125 72.90625 
L 47.609375 72.90625 
L 47.609375 25.390625 
L 58.015625 25.390625 
L 58.015625 17.1875 
L 47.609375 17.1875 
L 47.609375 0 
L 37.796875 0 
L 37.796875 17.1875 
L 4.890625 17.1875 
L 4.890625 26.703125 
z
" id="DejaVuSans-34"/>
     </defs>
     <g transform="translate(316.565307 139.981285)scale(0.1 -0.1)">
      <use xlink:href="#DejaVuSans-2212"/>
      <use x="83.789062" xlink:href="#DejaVuSans-34"/>
      <use x="147.412109" xlink:href="#DejaVuSans-30"/>
     </g>
    </g>
   </g>
   <g id="xtick_17">
    <g id="line2d_20">
     <path d="M 306.965199 121.48513 
L 310.923262 122.207846 
" style="fill:none;stroke:#000000;stroke-linecap:square;stroke-width:0.8;"/>
    </g>
    <g id="text_17">
     <!-- −20 -->
     <g transform="translate(317.4534 127.566671)scale(0.1 -0.1)">
      <use xlink:href="#DejaVuSans-2212"/>
      <use x="83.789062" xlink:href="#DejaVuSans-32"/>
      <use x="147.412109" xlink:href="#DejaVuSans-30"/>
     </g>
    </g>
   </g>
   <g id="xtick_18">
    <g id="line2d_21">
     <path d="M 307.735877 108.898243 
L 311.719318 109.612054 
" style="fill:none;stroke:#000000;stroke-linecap:square;stroke-width:0.8;"/>
    </g>
    <g id="text_18">
     <!-- 0 -->
     <g transform="translate(325.72357 114.998507)scale(0.1 -0.1)">
      <use xlink:href="#DejaVuSans-30"/>
     </g>
    </g>
   </g>
   <g id="xtick_19">
    <g id="line2d_22">
     <path d="M 308.516167 96.154354 
L 312.525314 96.858979 
" style="fill:none;stroke:#000000;stroke-linecap:square;stroke-width:0.8;"/>
    </g>
    <g id="text_19">
     <!-- 20 -->
     <g transform="translate(323.452587 102.273925)scale(0.1 -0.1)">
      <use xlink:href="#DejaVuSans-32"/>
      <use x="63.623047" xlink:href="#DejaVuSans-30"/>
     </g>
    </g>
   </g>
   <g id="xtick_20">
    <g id="line2d_23">
     <path d="M 309.306252 83.250506 
L 313.341438 83.945659 
" style="fill:none;stroke:#000000;stroke-linecap:square;stroke-width:0.8;"/>
    </g>
    <g id="text_20">
     <!-- 40 -->
     <g transform="translate(324.374253 89.389988)scale(0.1 -0.1)">
      <use xlink:href="#DejaVuSans-34"/>
      <use x="63.623047" xlink:href="#DejaVuSans-30"/>
     </g>
    </g>
   </g>
   <g id="xtick_21">
    <g id="line2d_24">
     <path d="M 310.106316 70.183668 
L 314.167881 70.869052 
" style="fill:none;stroke:#000000;stroke-linecap:square;stroke-width:0.8;"/>
    </g>
    <g id="text_21">
     <!-- 60 -->
     <g transform="translate(325.307534 76.343684)scale(0.1 -0.1)">
      <use xlink:href="#DejaVuSans-36"/>
      <use x="63.623047" xlink:href="#DejaVuSans-30"/>
     </g>
    </g>
   </g>
   <g id="xtick_22">
    <g id="line2d_25">
     <path d="M 310.91655 56.950734 
L 315.004841 57.626043 
" style="fill:none;stroke:#000000;stroke-linecap:square;stroke-width:0.8;"/>
    </g>
    <g id="text_22">
     <!-- 80 -->
     <defs>
      <path d="M 31.78125 34.625 
Q 24.75 34.625 20.71875 30.859375 
Q 16.703125 27.09375 16.703125 20.515625 
Q 16.703125 13.921875 20.71875 10.15625 
Q 24.75 6.390625 31.78125 6.390625 
Q 38.8125 6.390625 42.859375 10.171875 
Q 46.921875 13.96875 46.921875 20.515625 
Q 46.921875 27.09375 42.890625 30.859375 
Q 38.875 34.625 31.78125 34.625 
z
M 21.921875 38.8125 
Q 15.578125 40.375 12.03125 44.71875 
Q 8.5 49.078125 8.5 55.328125 
Q 8.5 64.0625 14.71875 69.140625 
Q 20.953125 74.21875 31.78125 74.21875 
Q 42.671875 74.21875 48.875 69.140625 
Q 55.078125 64.0625 55.078125 55.328125 
Q 55.078125 49.078125 51.53125 44.71875 
Q 48 40.375 41.703125 38.8125 
Q 48.828125 37.15625 52.796875 32.3125 
Q 56.78125 27.484375 56.78125 20.515625 
Q 56.78125 9.90625 50.3125 4.234375 
Q 43.84375 -1.421875 31.78125 -1.421875 
Q 19.734375 -1.421875 13.25 4.234375 
Q 6.78125 9.90625 6.78125 20.515625 
Q 6.78125 27.484375 10.78125 32.3125 
Q 14.796875 37.15625 21.921875 38.8125 
z
M 18.3125 54.390625 
Q 18.3125 48.734375 21.84375 45.5625 
Q 25.390625 42.390625 31.78125 42.390625 
Q 38.140625 42.390625 41.71875 45.5625 
Q 45.3125 48.734375 45.3125 54.390625 
Q 45.3125 60.0625 41.71875 63.234375 
Q 38.140625 66.40625 31.78125 66.40625 
Q 25.390625 66.40625 21.84375 63.234375 
Q 18.3125 60.0625 18.3125 54.390625 
z
" id="DejaVuSans-38"/>
     </defs>
     <g transform="translate(326.252651 63.131923)scale(0.1 -0.1)">
      <use xlink:href="#DejaVuSans-38"/>
      <use x="63.623047" xlink:href="#DejaVuSans-30"/>
     </g>
    </g>
   </g>
  </g>
  <g id="axes_1">
   <g id="Poly3DCollection_1">
    <path clip-path="url(#pe92cbb0859)" d="M 168.73043 161.661305 
L 172.956009 161.305463 
L 172.896249 148.999282 
L 168.644509 149.351234 
z
" style="fill:#2c3a91;stroke:#2c3a91;"/>
    <path clip-path="url(#pe92cbb0859)" d="M 172.956009 161.305463 
L 179.448372 161.756924 
L 179.428729 149.445808 
L 172.896249 148.999282 
z
" style="fill:#3242a6;stroke:#3242a6;"/>
    <path clip-path="url(#pe92cbb0859)" d="M 179.448372 161.756924 
L 185.3233 162.898773 
L 185.34002 150.57519 
L 179.428729 149.445808 
z
" style="fill:#3646b2;stroke:#3646b2;"/>
    <path clip-path="url(#pe92cbb0859)" d="M 164.54926 163.405575 
L 168.73043 161.661305 
L 168.644509 149.351234 
L 164.437211 151.076466 
z
" style="fill:#232e74;stroke:#232e74;"/>
    <path clip-path="url(#pe92cbb0859)" d="M 185.3233 162.898773 
L 189.454585 164.167206 
L 189.496971 151.829801 
L 185.34002 150.57519 
z
" style="fill:#3849b8;stroke:#3849b8;"/>
    <path clip-path="url(#pe92cbb0859)" d="M 164.133936 165.502303 
L 164.54926 163.405575 
L 164.437211 151.076466 
L 164.018978 153.150377 
z
" style="fill:#1e2763;stroke:#1e2763;"/>
    <path clip-path="url(#pe92cbb0859)" d="M 189.454585 164.167206 
L 192.972963 165.821893 
L 193.037331 153.466495 
L 189.496971 151.829801 
z
" style="fill:#3a4bbd;stroke:#3a4bbd;"/>
    <path clip-path="url(#pe92cbb0859)" d="M 165.656637 167.198903 
L 164.133936 165.502303 
L 164.018978 153.150377 
L 165.550898 154.828569 
z
" style="fill:#1d2660;stroke:#1d2660;"/>
    <path clip-path="url(#pe92cbb0859)" d="M 192.972963 165.821893 
L 194.525938 167.258837 
L 194.600112 154.887853 
L 193.037331 153.466495 
z
" style="fill:#3b4cc0;stroke:#3b4cc0;"/>
    <path clip-path="url(#pe92cbb0859)" d="M 168.11465 168.539049 
L 165.656637 167.198903 
L 165.550898 154.828569 
L 168.024062 156.154208 
z
" style="fill:#1e2762;stroke:#1e2762;"/>
    <path clip-path="url(#pe92cbb0859)" d="M 194.525938 167.258837 
L 193.640188 169.266059 
L 193.709031 156.873362 
L 194.600112 154.887853 
z
" style="fill:#394bbc;stroke:#394bbc;"/>
    <path clip-path="url(#pe92cbb0859)" d="M 173.380771 170.091415 
L 168.11465 168.539049 
L 168.024062 156.154208 
L 173.322938 157.689809 
z
" style="fill:#202a69;stroke:#202a69;"/>
    <path clip-path="url(#pe92cbb0859)" d="M 193.640188 169.266059 
L 190.203968 170.378248 
L 190.251409 157.973549 
L 193.709031 156.873362 
z
" style="fill:#3342a7;stroke:#3342a7;"/>
    <path clip-path="url(#pe92cbb0859)" d="M 179.889859 170.910511 
L 173.380771 170.091415 
L 173.322938 157.689809 
L 179.872731 158.500076 
z
" style="fill:#242e75;stroke:#242e75;"/>
    <path clip-path="url(#pe92cbb0859)" d="M 190.203968 170.378248 
L 185.523572 170.925908 
L 185.541732 158.515307 
L 190.251409 157.973549 
z
" style="fill:#2d3a93;stroke:#2d3a93;"/>
    <path clip-path="url(#pe92cbb0859)" d="M 185.523572 170.925908 
L 179.889859 170.910511 
L 179.872731 158.500076 
L 185.541732 158.515307 
z
" style="fill:#283483;stroke:#283483;"/>
   </g>
   <g id="Poly3DCollection_2">
    <path clip-path="url(#pe92cbb0859)" d="M 166.52748 146.049143 
L 172.38325 146.264257 
L 172.319802 133.836272 
L 166.427784 133.623623 
z
" style="fill:#5773c8;stroke:#5773c8;"/>
    <path clip-path="url(#pe92cbb0859)" d="M 161.892765 146.300409 
L 166.52748 146.049143 
L 166.427784 133.623623 
L 161.764317 133.872009 
z
" style="fill:#506ab8;stroke:#506ab8;"/>
    <path clip-path="url(#pe92cbb0859)" d="M 172.38325 146.264257 
L 177.619562 146.844084 
L 177.58853 134.409458 
L 172.319802 133.836272 
z
" style="fill:#5b79d3;stroke:#5b79d3;"/>
    <path clip-path="url(#pe92cbb0859)" d="M 156.62777 147.390541 
L 161.892765 146.300409 
L 161.764317 133.872009 
L 156.466452 134.949662 
z
" style="fill:#465da1;stroke:#465da1;"/>
    <path clip-path="url(#pe92cbb0859)" d="M 177.619562 146.844084 
L 182.46628 147.659073 
L 182.465299 135.215123 
L 177.58853 134.409458 
z
" style="fill:#5e7dda;stroke:#5e7dda;"/>
    <path clip-path="url(#pe92cbb0859)" d="M 153.60574 148.931437 
L 156.62777 147.390541 
L 156.466452 134.949662 
L 153.425275 136.472953 
z
" style="fill:#3c508b;stroke:#3c508b;"/>
    <path clip-path="url(#pe92cbb0859)" d="M 182.46628 147.659073 
L 187.003187 148.665718 
L 187.030408 136.210267 
L 182.465299 135.215123 
z
" style="fill:#6180df;stroke:#6180df;"/>
    <path clip-path="url(#pe92cbb0859)" d="M 187.003187 148.665718 
L 192.335211 150.158153 
L 192.395707 137.685684 
L 187.030408 136.210267 
z
" style="fill:#6282e3;stroke:#6282e3;"/>
    <path clip-path="url(#pe92cbb0859)" d="M 152.089282 150.780713 
L 153.60574 148.931437 
L 153.425275 136.472953 
L 151.898889 138.301156 
z
" style="fill:#37497f;stroke:#37497f;"/>
    <path clip-path="url(#pe92cbb0859)" d="M 192.335211 150.158153 
L 196.281933 151.525349 
L 196.367181 139.037322 
L 192.395707 137.685684 
z
" style="fill:#6484e6;stroke:#6484e6;"/>
    <path clip-path="url(#pe92cbb0859)" d="M 151.836508 152.351135 
L 152.089282 150.780713 
L 151.898889 138.301156 
L 151.644114 139.853728 
z
" style="fill:#35467a;stroke:#35467a;"/>
    <path clip-path="url(#pe92cbb0859)" d="M 196.281933 151.525349 
L 199.961909 153.085118 
L 200.070363 140.579383 
L 196.367181 139.037322 
z
" style="fill:#6586e9;stroke:#6586e9;"/>
    <path clip-path="url(#pe92cbb0859)" d="M 152.45204 154.101976 
L 151.836508 152.351135 
L 151.644114 139.853728 
L 152.263028 141.58472 
z
" style="fill:#344477;stroke:#344477;"/>
    <path clip-path="url(#pe92cbb0859)" d="M 199.961909 153.085118 
L 202.462971 154.422154 
L 202.587304 141.901273 
L 200.070363 140.579383 
z
" style="fill:#6687eb;stroke:#6687eb;"/>
    <path clip-path="url(#pe92cbb0859)" d="M 153.516973 155.411985 
L 152.45204 154.101976 
L 152.263028 141.58472 
L 153.334296 142.879911 
z
" style="fill:#344477;stroke:#344477;"/>
    <path clip-path="url(#pe92cbb0859)" d="M 202.462971 154.422154 
L 204.533997 156.030583 
L 204.671621 143.491522 
L 202.587304 141.901273 
z
" style="fill:#6788ed;stroke:#6788ed;"/>
    <path clip-path="url(#pe92cbb0859)" d="M 156.330959 157.451145 
L 153.516973 155.411985 
L 153.334296 142.879911 
L 156.165471 144.896066 
z
" style="fill:#344578;stroke:#344578;"/>
    <path clip-path="url(#pe92cbb0859)" d="M 204.533997 156.030583 
L 205.324876 157.546233 
L 205.46777 144.990082 
L 204.671621 143.491522 
z
" style="fill:#6788ee;stroke:#6788ee;"/>
    <path clip-path="url(#pe92cbb0859)" d="M 158.933097 158.706223 
L 156.330959 157.451145 
L 156.165471 144.896066 
L 158.783725 146.13702 
z
" style="fill:#35467b;stroke:#35467b;"/>
    <path clip-path="url(#pe92cbb0859)" d="M 205.324876 157.546233 
L 203.177053 159.836827 
L 203.306841 147.254924 
L 205.46777 144.990082 
z
" style="fill:#6383e4;stroke:#6383e4;"/>
    <path clip-path="url(#pe92cbb0859)" d="M 162.917359 160.091651 
L 158.933097 158.706223 
L 158.783725 146.13702 
L 162.792867 147.506888 
z
" style="fill:#37497f;stroke:#37497f;"/>
    <path clip-path="url(#pe92cbb0859)" d="M 203.177053 159.836827 
L 199.379328 161.082612 
L 199.485318 148.486741 
L 203.306841 147.254924 
z
" style="fill:#5a76cf;stroke:#5a76cf;"/>
    <path clip-path="url(#pe92cbb0859)" d="M 168.621335 161.414752 
L 162.917359 160.091651 
L 162.792867 147.506888 
L 168.532713 148.815162 
z
" style="fill:#3a4d86;stroke:#3a4d86;"/>
    <path clip-path="url(#pe92cbb0859)" d="M 199.379328 161.082612 
L 194.795181 161.934647 
L 194.872264 149.329239 
L 199.485318 148.486741 
z
" style="fill:#536ec0;stroke:#536ec0;"/>
    <path clip-path="url(#pe92cbb0859)" d="M 173.740773 162.154226 
L 168.621335 161.414752 
L 168.532713 148.815162 
L 173.684493 149.546361 
z
" style="fill:#3e518e;stroke:#3e518e;"/>
    <path clip-path="url(#pe92cbb0859)" d="M 194.795181 161.934647 
L 190.889472 162.371949 
L 190.941851 149.76165 
L 194.872264 149.329239 
z
" style="fill:#4f68b5;stroke:#4f68b5;"/>
    <path clip-path="url(#pe92cbb0859)" d="M 180.883508 162.643585 
L 173.740773 162.154226 
L 173.684493 149.546361 
L 180.872472 150.03025 
z
" style="fill:#425798;stroke:#425798;"/>
    <path clip-path="url(#pe92cbb0859)" d="M 190.889472 162.371949 
L 185.644255 162.654188 
L 185.6634 150.040734 
L 190.941851 149.76165 
z
" style="fill:#4b63ac;stroke:#4b63ac;"/>
    <path clip-path="url(#pe92cbb0859)" d="M 185.644255 162.654188 
L 180.883508 162.643585 
L 180.872472 150.03025 
L 185.6634 150.040734 
z
" style="fill:#475da3;stroke:#475da3;"/>
   </g>
   <g id="Poly3DCollection_3">
    <path clip-path="url(#pe92cbb0859)" d="M 158.884307 130.816303 
L 163.366502 130.927522 
L 163.246952 118.379443 
L 158.736956 118.26956 
z
" style="fill:#809bd4;stroke:#809bd4;"/>
    <path clip-path="url(#pe92cbb0859)" d="M 153.914575 130.97949 
L 158.884307 130.816303 
L 158.736956 118.26956 
L 153.736336 118.430787 
z
" style="fill:#7a93c9;stroke:#7a93c9;"/>
    <path clip-path="url(#pe92cbb0859)" d="M 163.366502 130.927522 
L 168.89534 131.33141 
L 168.810062 118.778481 
L 163.246952 118.379443 
z
" style="fill:#85a1dc;stroke:#85a1dc;"/>
    <path clip-path="url(#pe92cbb0859)" d="M 149.43015 131.486545 
L 153.914575 130.97949 
L 153.736336 118.430787 
L 149.223918 118.931754 
z
" style="fill:#7189bb;stroke:#7189bb;"/>
    <path clip-path="url(#pe92cbb0859)" d="M 168.89534 131.33141 
L 175.312322 132.124699 
L 175.266851 119.562254 
L 168.810062 118.778481 
z
" style="fill:#8aa7e4;stroke:#8aa7e4;"/>
    <path clip-path="url(#pe92cbb0859)" d="M 144.723172 132.671606 
L 149.43015 131.486545 
L 149.223918 118.931754 
L 144.487291 120.102607 
z
" style="fill:#657aa7;stroke:#657aa7;"/>
    <path clip-path="url(#pe92cbb0859)" d="M 175.312322 132.124699 
L 181.308331 133.170602 
L 181.300135 120.595627 
L 175.266851 119.562254 
z
" style="fill:#8dacea;stroke:#8dacea;"/>
    <path clip-path="url(#pe92cbb0859)" d="M 141.612414 134.174446 
L 144.723172 132.671606 
L 144.487291 120.102607 
L 141.356618 121.587463 
z
" style="fill:#5a6d95;stroke:#5a6d95;"/>
    <path clip-path="url(#pe92cbb0859)" d="M 181.308331 133.170602 
L 186.964864 134.42684 
L 186.991946 121.836841 
L 181.300135 120.595627 
z
" style="fill:#90afef;stroke:#90afef;"/>
    <path clip-path="url(#pe92cbb0859)" d="M 186.964864 134.42684 
L 191.283424 135.564062 
L 191.33754 122.960486 
L 186.991946 121.836841 
z
" style="fill:#92b1f2;stroke:#92b1f2;"/>
    <path clip-path="url(#pe92cbb0859)" d="M 139.229867 136.359999 
L 141.612414 134.174446 
L 141.356618 121.587463 
L 138.958356 123.746934 
z
" style="fill:#53658a;stroke:#53658a;"/>
    <path clip-path="url(#pe92cbb0859)" d="M 191.283424 135.564062 
L 195.44647 136.804329 
L 195.526747 124.185972 
L 191.33754 122.960486 
z
" style="fill:#94b3f5;stroke:#94b3f5;"/>
    <path clip-path="url(#pe92cbb0859)" d="M 138.417169 137.907139 
L 139.229867 136.359999 
L 138.958356 123.746934 
L 138.139956 125.275663 
z
" style="fill:#506185;stroke:#506185;"/>
    <path clip-path="url(#pe92cbb0859)" d="M 195.44647 136.804329 
L 199.467906 138.141096 
L 199.573564 125.506839 
L 195.526747 124.185972 
z
" style="fill:#95b4f6;stroke:#95b4f6;"/>
    <path clip-path="url(#pe92cbb0859)" d="M 199.467906 138.141096 
L 203.354537 139.571879 
L 203.484843 126.920638 
L 199.573564 125.506839 
z
" style="fill:#96b5f8;stroke:#96b5f8;"/>
    <path clip-path="url(#pe92cbb0859)" d="M 138.145105 139.827979 
L 138.417169 137.907139 
L 138.139956 125.275663 
L 137.865416 127.173702 
z
" style="fill:#4e5f82;stroke:#4e5f82;"/>
    <path clip-path="url(#pe92cbb0859)" d="M 203.354537 139.571879 
L 207.102051 141.100753 
L 207.25625 128.431405 
L 203.484843 126.920638 
z
" style="fill:#96b6f9;stroke:#96b6f9;"/>
    <path clip-path="url(#pe92cbb0859)" d="M 138.489988 141.411491 
L 138.145105 139.827979 
L 137.865416 127.173702 
L 138.211838 128.738467 
z
" style="fill:#4d5e80;stroke:#4d5e80;"/>
    <path clip-path="url(#pe92cbb0859)" d="M 207.102051 141.100753 
L 210.659546 142.75975 
L 210.836575 130.070799 
L 207.25625 128.431405 
z
" style="fill:#97b8fb;stroke:#97b8fb;"/>
    <path clip-path="url(#pe92cbb0859)" d="M 139.210931 142.797262 
L 138.489988 141.411491 
L 138.211838 128.738467 
L 138.936782 130.107869 
z
" style="fill:#4d5d80;stroke:#4d5d80;"/>
    <path clip-path="url(#pe92cbb0859)" d="M 210.659546 142.75975 
L 213.127276 144.136117 
L 213.320266 131.430941 
L 210.836575 130.070799 
z
" style="fill:#98b9fd;stroke:#98b9fd;"/>
    <path clip-path="url(#pe92cbb0859)" d="M 140.765272 144.605614 
L 139.210931 142.797262 
L 138.936782 130.107869 
L 140.500256 131.89491 
z
" style="fill:#4d5d7f;stroke:#4d5d7f;"/>
    <path clip-path="url(#pe92cbb0859)" d="M 213.127276 144.136117 
L 215.291789 145.706533 
L 215.498936 132.982884 
L 213.320266 131.430941 
z
" style="fill:#99bafe;stroke:#99bafe;"/>
    <path clip-path="url(#pe92cbb0859)" d="M 142.755324 146.186583 
L 140.765272 144.605614 
L 140.500256 131.89491 
L 142.502339 133.457295 
z
" style="fill:#4d5e80;stroke:#4d5e80;"/>
    <path clip-path="url(#pe92cbb0859)" d="M 215.291789 145.706533 
L 216.405116 147.113402 
L 216.619751 134.373241 
L 215.498936 132.982884 
z
" style="fill:#9abbff;stroke:#9abbff;"/>
    <path clip-path="url(#pe92cbb0859)" d="M 145.662622 147.888272 
L 142.755324 146.186583 
L 142.502339 133.457295 
L 145.427518 135.139032 
z
" style="fill:#4e5f82;stroke:#4e5f82;"/>
    <path clip-path="url(#pe92cbb0859)" d="M 216.405116 147.113402 
L 215.888962 149.166469 
L 216.100934 136.402275 
L 216.619751 134.373241 
z
" style="fill:#97b8fb;stroke:#97b8fb;"/>
    <path clip-path="url(#pe92cbb0859)" d="M 148.613525 149.226554 
L 145.662622 147.888272 
L 145.427518 135.139032 
L 148.39678 136.461658 
z
" style="fill:#506184;stroke:#506184;"/>
    <path clip-path="url(#pe92cbb0859)" d="M 215.888962 149.166469 
L 213.853675 150.442112 
L 214.053036 137.663024 
L 216.100934 136.402275 
z
" style="fill:#8faded;stroke:#8faded;"/>
    <path clip-path="url(#pe92cbb0859)" d="M 152.57509 150.634547 
L 148.613525 149.226554 
L 148.39678 136.461658 
L 152.38321 137.853214 
z
" style="fill:#526388;stroke:#526388;"/>
    <path clip-path="url(#pe92cbb0859)" d="M 156.923727 151.832957 
L 152.57509 150.634547 
L 152.38321 137.853214 
L 156.759338 139.037662 
z
" style="fill:#54668c;stroke:#54668c;"/>
    <path clip-path="url(#pe92cbb0859)" d="M 213.853675 150.442112 
L 208.722791 152.108525 
L 208.88979 139.310022 
L 214.053036 137.663024 
z
" style="fill:#86a2dd;stroke:#86a2dd;"/>
    <path clip-path="url(#pe92cbb0859)" d="M 162.862467 153.055345 
L 156.923727 151.832957 
L 156.759338 139.037662 
L 162.735846 140.245833 
z
" style="fill:#586a91;stroke:#586a91;"/>
    <path clip-path="url(#pe92cbb0859)" d="M 208.722791 152.108525 
L 204.698804 152.958612 
L 204.840223 140.150224 
L 208.88979 139.310022 
z
" style="fill:#7e99d1;stroke:#7e99d1;"/>
    <path clip-path="url(#pe92cbb0859)" d="M 204.698804 152.958612 
L 200.039914 153.687653 
L 200.151601 140.870799 
L 204.840223 140.150224 
z
" style="fill:#7a94ca;stroke:#7a94ca;"/>
    <path clip-path="url(#pe92cbb0859)" d="M 168.013753 153.81018 
L 162.862467 153.055345 
L 162.735846 140.245833 
L 167.920039 140.991903 
z
" style="fill:#5c6f98;stroke:#5c6f98;"/>
    <path clip-path="url(#pe92cbb0859)" d="M 200.039914 153.687653 
L 194.642311 154.269023 
L 194.719446 141.445424 
L 200.151601 140.870799 
z
" style="fill:#758ec2;stroke:#758ec2;"/>
    <path clip-path="url(#pe92cbb0859)" d="M 173.534851 154.355059 
L 168.013753 153.81018 
L 167.920039 140.991903 
L 173.476505 141.530461 
z
" style="fill:#60749e;stroke:#60749e;"/>
    <path clip-path="url(#pe92cbb0859)" d="M 194.642311 154.269023 
L 190.467091 154.552994 
L 190.517448 141.726102 
L 194.719446 141.445424 
z
" style="fill:#7189bb;stroke:#7189bb;"/>
    <path clip-path="url(#pe92cbb0859)" d="M 179.931908 154.679918 
L 173.534851 154.355059 
L 173.476505 141.530461 
L 179.914617 141.851555 
z
" style="fill:#6479a6;stroke:#6479a6;"/>
    <path clip-path="url(#pe92cbb0859)" d="M 190.467091 154.552994 
L 185.688258 154.713073 
L 185.707935 141.884326 
L 190.517448 141.726102 
z
" style="fill:#6d84b5;stroke:#6d84b5;"/>
    <path clip-path="url(#pe92cbb0859)" d="M 185.688258 154.713073 
L 179.931908 154.679918 
L 179.914617 141.851555 
L 185.707935 141.884326 
z
" style="fill:#697fae;stroke:#697fae;"/>
   </g>
   <g id="Poly3DCollection_4">
    <path clip-path="url(#pe92cbb0859)" d="M 116.414413 111.597864 
L 122.004826 111.930489 
L 121.629769 99.306892 
L 116.004971 98.978477 
z
" style="fill:#646c78;stroke:#646c78;"/>
    <path clip-path="url(#pe92cbb0859)" d="M 122.004826 111.930489 
L 127.576523 112.276401 
L 127.235763 99.648427 
L 121.629769 99.306892 
z
" style="fill:#666d7a;stroke:#666d7a;"/>
    <path clip-path="url(#pe92cbb0859)" d="M 127.576523 112.276401 
L 133.104796 112.649071 
L 132.798087 100.016383 
L 127.235763 99.648427 
z
" style="fill:#69707d;stroke:#69707d;"/>
    <path clip-path="url(#pe92cbb0859)" d="M 133.104796 112.649071 
L 138.592774 113.047208 
L 138.319894 100.409488 
L 132.798087 100.016383 
z
" style="fill:#6b7380;stroke:#6b7380;"/>
    <path clip-path="url(#pe92cbb0859)" d="M 138.592774 113.047208 
L 144.026836 113.478587 
L 143.787479 100.835417 
L 138.319894 100.409488 
z
" style="fill:#6f7784;stroke:#6f7784;"/>
    <path clip-path="url(#pe92cbb0859)" d="M 144.026836 113.478587 
L 149.392313 113.951708 
L 149.186084 101.302565 
L 143.787479 100.835417 
z
" style="fill:#737c8a;stroke:#737c8a;"/>
    <path clip-path="url(#pe92cbb0859)" d="M 149.392313 113.951708 
L 154.67378 114.475659 
L 154.500191 101.819906 
L 149.186084 101.302565 
z
" style="fill:#798290;stroke:#798290;"/>
    <path clip-path="url(#pe92cbb0859)" d="M 154.67378 114.475659 
L 161.129151 115.218883 
L 160.995506 102.553762 
L 154.500191 101.819906 
z
" style="fill:#808a99;stroke:#808a99;"/>
    <path clip-path="url(#pe92cbb0859)" d="M 161.129151 115.218883 
L 166.151115 115.899213 
L 166.04859 103.225526 
L 160.995506 102.553762 
z
" style="fill:#8993a4;stroke:#8993a4;"/>
    <path clip-path="url(#pe92cbb0859)" d="M 166.151115 115.899213 
L 172.231824 116.869254 
L 172.167051 104.183368 
L 166.04859 103.225526 
z
" style="fill:#939eaf;stroke:#939eaf;"/>
    <path clip-path="url(#pe92cbb0859)" d="M 172.231824 116.869254 
L 178.071367 117.987295 
L 178.042943 105.287368 
L 172.167051 104.183368 
z
" style="fill:#9eaabd;stroke:#9eaabd;"/>
    <path clip-path="url(#pe92cbb0859)" d="M 178.071367 117.987295 
L 183.672875 119.254458 
L 183.679434 106.538647 
L 178.042943 105.287368 
z
" style="fill:#a8b5c9;stroke:#a8b5c9;"/>
    <path clip-path="url(#pe92cbb0859)" d="M 183.672875 119.254458 
L 189.073405 120.652597 
L 189.113825 107.919293 
L 183.679434 106.538647 
z
" style="fill:#b1bed3;stroke:#b1bed3;"/>
    <path clip-path="url(#pe92cbb0859)" d="M 189.073405 120.652597 
L 193.266245 121.85736 
L 193.333063 109.10901 
L 189.113825 107.919293 
z
" style="fill:#b7c4da;stroke:#b7c4da;"/>
    <path clip-path="url(#pe92cbb0859)" d="M 193.266245 121.85736 
L 197.369481 123.126426 
L 197.462235 110.362257 
L 193.333063 109.10901 
z
" style="fill:#bbc8df;stroke:#bbc8df;"/>
    <path clip-path="url(#pe92cbb0859)" d="M 197.369481 123.126426 
L 201.402733 124.449483 
L 201.521088 111.668853 
L 197.462235 110.362257 
z
" style="fill:#becce3;stroke:#becce3;"/>
    <path clip-path="url(#pe92cbb0859)" d="M 201.402733 124.449483 
L 206.159703 126.089609 
L 206.308397 113.288615 
L 201.521088 111.668853 
z
" style="fill:#c0cee6;stroke:#c0cee6;"/>
    <path clip-path="url(#pe92cbb0859)" d="M 206.159703 126.089609 
L 209.324858 127.222749 
L 209.493828 114.407716 
L 206.308397 113.288615 
z
" style="fill:#c2d0e8;stroke:#c2d0e8;"/>
    <path clip-path="url(#pe92cbb0859)" d="M 209.324858 127.222749 
L 213.231824 128.663708 
L 213.425925 115.830854 
L 209.493828 114.407716 
z
" style="fill:#c3d2e9;stroke:#c3d2e9;"/>
    <path clip-path="url(#pe92cbb0859)" d="M 213.231824 128.663708 
L 217.123512 130.129394 
L 217.342761 117.278454 
L 213.425925 115.830854 
z
" style="fill:#c4d3eb;stroke:#c4d3eb;"/>
    <path clip-path="url(#pe92cbb0859)" d="M 217.123512 130.129394 
L 220.486479 131.413085 
L 220.727549 118.546335 
L 217.342761 117.278454 
z
" style="fill:#c5d3eb;stroke:#c5d3eb;"/>
    <path clip-path="url(#pe92cbb0859)" d="M 220.486479 131.413085 
L 224.867512 133.132733 
L 225.137148 120.244852 
L 220.727549 118.546335 
z
" style="fill:#c6d5ed;stroke:#c6d5ed;"/>
    <path clip-path="url(#pe92cbb0859)" d="M 224.867512 133.132733 
L 228.300561 134.477951 
L 228.592677 121.573576 
L 225.137148 120.244852 
z
" style="fill:#c6d5ed;stroke:#c6d5ed;"/>
    <path clip-path="url(#pe92cbb0859)" d="M 228.300561 134.477951 
L 231.630823 135.823129 
L 231.944847 122.902295 
L 228.592677 121.573576 
z
" style="fill:#c7d6ee;stroke:#c7d6ee;"/>
    <path clip-path="url(#pe92cbb0859)" d="M 231.630823 135.823129 
L 235.505278 137.378265 
L 235.844888 124.438443 
L 231.944847 122.902295 
z
" style="fill:#c7d6ee;stroke:#c7d6ee;"/>
    <path clip-path="url(#pe92cbb0859)" d="M 235.505278 137.378265 
L 238.413239 138.554792 
L 238.772131 125.600633 
L 235.844888 124.438443 
z
" style="fill:#c7d6ee;stroke:#c7d6ee;"/>
    <path clip-path="url(#pe92cbb0859)" d="M 238.413239 138.554792 
L 243.217999 140.514065 
L 243.608897 127.536089 
L 238.772131 125.600633 
z
" style="fill:#c8d7ef;stroke:#c8d7ef;"/>
    <path clip-path="url(#pe92cbb0859)" d="M 243.217999 140.514065 
L 246.16631 141.742137 
L 246.576949 128.749267 
L 243.608897 127.536089 
z
" style="fill:#c9d7f0;stroke:#c9d7f0;"/>
    <path clip-path="url(#pe92cbb0859)" d="M 246.16631 141.742137 
L 250.064108 143.34996 
L 250.500939 130.337632 
L 246.576949 128.749267 
z
" style="fill:#c8d7ef;stroke:#c8d7ef;"/>
   </g>
   <g id="Poly3DCollection_5">
    <path clip-path="url(#pe92cbb0859)" d="M 189.424819 100.742911 
L 184.641525 100.787032 
L 184.654112 87.986711 
L 189.467249 87.943173 
z
" style="fill:#a08d82;stroke:#a08d82;"/>
    <path clip-path="url(#pe92cbb0859)" d="M 193.86524 100.888633 
L 189.424819 100.742911 
L 189.467249 87.943173 
L 193.93539 88.086973 
z
" style="fill:#98867c;stroke:#98867c;"/>
    <path clip-path="url(#pe92cbb0859)" d="M 200.970528 101.299016 
L 193.86524 100.888633 
L 193.93539 88.086973 
L 201.08509 88.491945 
z
" style="fill:#938278;stroke:#938278;"/>
    <path clip-path="url(#pe92cbb0859)" d="M 184.641525 100.787032 
L 181.04123 101.904179 
L 181.031335 89.089135 
L 184.654112 87.986711 
z
" style="fill:#ceb5a8;stroke:#ceb5a8;"/>
    <path clip-path="url(#pe92cbb0859)" d="M 206.278823 101.688537 
L 200.970528 101.299016 
L 201.08509 88.491945 
L 206.42662 88.876333 
z
" style="fill:#917f76;stroke:#917f76;"/>
    <path clip-path="url(#pe92cbb0859)" d="M 211.309215 102.109331 
L 206.278823 101.688537 
L 206.42662 88.876333 
L 211.488556 89.291585 
z
" style="fill:#8f7e75;stroke:#8f7e75;"/>
    <path clip-path="url(#pe92cbb0859)" d="M 216.91948 102.634996 
L 211.309215 102.109331 
L 211.488556 89.291585 
L 217.134068 89.810332 
z
" style="fill:#8d7c73;stroke:#8d7c73;"/>
    <path clip-path="url(#pe92cbb0859)" d="M 181.04123 101.904179 
L 183.117749 103.358086 
L 183.12084 90.523914 
L 181.031335 89.089135 
z
" style="fill:#edd1c2;stroke:#edd1c2;"/>
    <path clip-path="url(#pe92cbb0859)" d="M 222.67614 103.237713 
L 216.91948 102.634996 
L 217.134068 89.810332 
L 222.926978 90.405123 
z
" style="fill:#8c7b72;stroke:#8c7b72;"/>
    <path clip-path="url(#pe92cbb0859)" d="M 229.19916 104.010141 
L 222.67614 103.237713 
L 222.926978 90.405123 
L 229.491191 91.167403 
z
" style="fill:#8a7970;stroke:#8a7970;"/>
    <path clip-path="url(#pe92cbb0859)" d="M 183.117749 103.358086 
L 185.805711 104.484703 
L 185.825673 91.635735 
L 183.12084 90.523914 
z
" style="fill:#e9cdbe;stroke:#e9cdbe;"/>
    <path clip-path="url(#pe92cbb0859)" d="M 234.315507 104.694615 
L 229.19916 104.010141 
L 229.491191 91.167403 
L 234.639953 91.842893 
z
" style="fill:#87776e;stroke:#87776e;"/>
    <path clip-path="url(#pe92cbb0859)" d="M 240.58359 105.634837 
L 234.315507 104.694615 
L 234.639953 91.842893 
L 240.947894 92.770789 
z
" style="fill:#85756d;stroke:#85756d;"/>
    <path clip-path="url(#pe92cbb0859)" d="M 185.805711 104.484703 
L 189.607385 105.87946 
L 189.651293 93.012208 
L 185.825673 91.635735 
z
" style="fill:#e8ccbd;stroke:#e8ccbd;"/>
    <path clip-path="url(#pe92cbb0859)" d="M 246.698625 106.677673 
L 240.58359 105.634837 
L 240.947894 92.770789 
L 247.101998 93.799974 
z
" style="fill:#83736b;stroke:#83736b;"/>
    <path clip-path="url(#pe92cbb0859)" d="M 189.607385 105.87946 
L 194.081271 107.462365 
L 194.153482 94.574407 
L 189.651293 93.012208 
z
" style="fill:#e7cbbd;stroke:#e7cbbd;"/>
    <path clip-path="url(#pe92cbb0859)" d="M 252.666953 107.821531 
L 246.698625 106.677673 
L 247.101998 93.799974 
L 253.108659 94.928881 
z
" style="fill:#807169;stroke:#807169;"/>
    <path clip-path="url(#pe92cbb0859)" d="M 194.081271 107.462365 
L 197.397953 108.608161 
L 197.491229 95.705244 
L 194.153482 94.574407 
z
" style="fill:#e7cbbc;stroke:#e7cbbc;"/>
    <path clip-path="url(#pe92cbb0859)" d="M 258.481624 109.072666 
L 252.666953 107.821531 
L 253.108659 94.928881 
L 258.960897 96.163691 
z
" style="fill:#7e6f67;stroke:#7e6f67;"/>
    <path clip-path="url(#pe92cbb0859)" d="M 197.397953 108.608161 
L 201.341859 109.96691 
L 201.460277 97.046284 
L 197.491229 95.705244 
z
" style="fill:#e7cbbc;stroke:#e7cbbc;"/>
    <path clip-path="url(#pe92cbb0859)" d="M 263.024956 110.151008 
L 258.481624 109.072666 
L 258.960897 96.163691 
L 263.533756 97.227986 
z
" style="fill:#7c6d65;stroke:#7c6d65;"/>
    <path clip-path="url(#pe92cbb0859)" d="M 201.341859 109.96691 
L 205.303236 111.330345 
L 205.447008 98.391985 
L 201.460277 97.046284 
z
" style="fill:#e7cbbc;stroke:#e7cbbc;"/>
    <path clip-path="url(#pe92cbb0859)" d="M 268.558078 111.603993 
L 263.024956 110.151008 
L 263.533756 97.227986 
L 269.103076 98.662078 
z
" style="fill:#7a6c64;stroke:#7a6c64;"/>
    <path clip-path="url(#pe92cbb0859)" d="M 205.303236 111.330345 
L 209.291385 112.693222 
L 209.460785 99.737169 
L 205.447008 98.391985 
z
" style="fill:#e7cbbc;stroke:#e7cbbc;"/>
    <path clip-path="url(#pe92cbb0859)" d="M 272.857382 112.858252 
L 268.558078 111.603993 
L 269.103076 98.662078 
L 273.430719 99.900059 
z
" style="fill:#786a62;stroke:#786a62;"/>
    <path clip-path="url(#pe92cbb0859)" d="M 209.291385 112.693222 
L 213.509689 114.110105 
L 213.706299 101.135694 
L 209.460785 99.737169 
z
" style="fill:#e6cbbc;stroke:#e6cbbc;"/>
    <path clip-path="url(#pe92cbb0859)" d="M 277.023957 114.207663 
L 272.857382 112.858252 
L 273.430719 99.900059 
L 277.624974 101.231989 
z
" style="fill:#776861;stroke:#776861;"/>
    <path clip-path="url(#pe92cbb0859)" d="M 213.509689 114.110105 
L 217.404996 115.384312 
L 217.626823 102.393425 
L 213.706299 101.135694 
z
" style="fill:#e6cabc;stroke:#e6cabc;"/>
    <path clip-path="url(#pe92cbb0859)" d="M 217.404996 115.384312 
L 221.56706 116.690863 
L 221.815915 103.683112 
L 217.626823 102.393425 
z
" style="fill:#e5cabb;stroke:#e5cabb;"/>
    <path clip-path="url(#pe92cbb0859)" d="M 221.56706 116.690863 
L 225.834484 117.950273 
L 226.111123 104.926295 
L 221.815915 103.683112 
z
" style="fill:#e4c9ba;stroke:#e4c9ba;"/>
    <path clip-path="url(#pe92cbb0859)" d="M 225.834484 117.950273 
L 231.355765 119.434177 
L 231.668438 106.39112 
L 226.111123 104.926295 
z
" style="fill:#e3c7b9;stroke:#e3c7b9;"/>
    <path clip-path="url(#pe92cbb0859)" d="M 231.355765 119.434177 
L 235.958722 120.526192 
L 236.301481 107.46912 
L 231.668438 106.39112 
z
" style="fill:#e0c5b7;stroke:#e0c5b7;"/>
    <path clip-path="url(#pe92cbb0859)" d="M 235.958722 120.526192 
L 241.992823 121.741371 
L 242.375044 108.66873 
L 236.301481 107.46912 
z
" style="fill:#ddc3b4;stroke:#ddc3b4;"/>
    <path clip-path="url(#pe92cbb0859)" d="M 241.992823 121.741371 
L 249.678151 122.955203 
L 250.110622 109.867037 
L 242.375044 108.66873 
z
" style="fill:#d8beb0;stroke:#d8beb0;"/>
    <path clip-path="url(#pe92cbb0859)" d="M 249.678151 122.955203 
L 255.071354 123.612947 
L 255.539061 110.516379 
L 250.110622 109.867037 
z
" style="fill:#d4baad;stroke:#d4baad;"/>
    <path clip-path="url(#pe92cbb0859)" d="M 255.071354 123.612947 
L 260.694851 124.138206 
L 261.19925 111.034936 
L 255.539061 110.516379 
z
" style="fill:#cfb6a9;stroke:#cfb6a9;"/>
   </g>
   <g id="Poly3DCollection_6">
    <path clip-path="url(#pe92cbb0859)" d="M 207.007817 91.327135 
L 202.007321 91.461134 
L 202.129677 78.452298 
L 207.161707 78.320137 
z
" style="fill:#ae7661;stroke:#ae7661;"/>
    <path clip-path="url(#pe92cbb0859)" d="M 213.299153 91.577149 
L 207.007817 91.327135 
L 207.161707 78.320137 
L 213.492824 78.566722 
z
" style="fill:#a16e5a;stroke:#a16e5a;"/>
    <path clip-path="url(#pe92cbb0859)" d="M 218.546343 91.968097 
L 213.299153 91.577149 
L 213.492824 78.566722 
L 218.773279 78.952309 
z
" style="fill:#9b6956;stroke:#9b6956;"/>
    <path clip-path="url(#pe92cbb0859)" d="M 202.007321 91.461134 
L 199.068438 92.204965 
L 199.172362 79.185931 
L 202.129677 78.452298 
z
" style="fill:#d28f75;stroke:#d28f75;"/>
    <path clip-path="url(#pe92cbb0859)" d="M 223.956244 92.495716 
L 218.546343 91.968097 
L 218.773279 78.952309 
L 224.21757 79.472698 
z
" style="fill:#976754;stroke:#976754;"/>
    <path clip-path="url(#pe92cbb0859)" d="M 230.504082 93.284747 
L 223.956244 92.495716 
L 224.21757 79.472698 
L 230.807174 80.250927 
z
" style="fill:#946552;stroke:#946552;"/>
    <path clip-path="url(#pe92cbb0859)" d="M 199.068438 92.204965 
L 199.589121 93.668642 
L 199.696576 80.629571 
L 199.172362 79.185931 
z
" style="fill:#f7a889;stroke:#f7a889;"/>
    <path clip-path="url(#pe92cbb0859)" d="M 235.589246 94.0109 
L 230.504082 93.284747 
L 230.807174 80.250927 
L 235.924902 80.96715 
z
" style="fill:#916251;stroke:#916251;"/>
    <path clip-path="url(#pe92cbb0859)" d="M 199.589121 93.668642 
L 201.925521 95.017977 
L 202.048028 81.960471 
L 199.696576 80.629571 
z
" style="fill:#f6a789;stroke:#f6a789;"/>
    <path clip-path="url(#pe92cbb0859)" d="M 242.979776 95.251343 
L 235.589246 94.0109 
L 235.924902 80.96715 
L 243.362996 82.190652 
z
" style="fill:#8e604f;stroke:#8e604f;"/>
    <path clip-path="url(#pe92cbb0859)" d="M 248.920465 96.426942 
L 242.979776 95.251343 
L 243.362996 82.190652 
L 249.342163 83.350223 
z
" style="fill:#8b5e4d;stroke:#8b5e4d;"/>
    <path clip-path="url(#pe92cbb0859)" d="M 201.925521 95.017977 
L 205.772118 96.675694 
L 205.919413 83.595587 
L 202.048028 81.960471 
z
" style="fill:#f3a587;stroke:#f3a587;"/>
    <path clip-path="url(#pe92cbb0859)" d="M 253.530258 97.462269 
L 248.920465 96.426942 
L 249.342163 83.350223 
L 253.981991 84.371456 
z
" style="fill:#885d4c;stroke:#885d4c;"/>
    <path clip-path="url(#pe92cbb0859)" d="M 205.772118 96.675694 
L 209.336276 98.009506 
L 209.506597 84.911251 
L 205.919413 83.595587 
z
" style="fill:#f2a486;stroke:#f2a486;"/>
    <path clip-path="url(#pe92cbb0859)" d="M 257.996413 98.593237 
L 253.530258 97.462269 
L 253.981991 84.371456 
L 258.477429 85.487052 
z
" style="fill:#865b4a;stroke:#865b4a;"/>
    <path clip-path="url(#pe92cbb0859)" d="M 209.336276 98.009506 
L 213.299999 99.384434 
L 213.496003 86.267509 
L 209.506597 84.911251 
z
" style="fill:#f1a486;stroke:#f1a486;"/>
    <path clip-path="url(#pe92cbb0859)" d="M 262.469002 99.884439 
L 257.996413 98.593237 
L 258.477429 85.487052 
L 262.979563 86.760733 
z
" style="fill:#845949;stroke:#845949;"/>
    <path clip-path="url(#pe92cbb0859)" d="M 213.299999 99.384434 
L 217.392512 100.701608 
L 217.615111 87.56683 
L 213.496003 86.267509 
z
" style="fill:#f0a385;stroke:#f0a385;"/>
    <path clip-path="url(#pe92cbb0859)" d="M 267.370288 101.584771 
L 262.469002 99.884439 
L 262.979563 86.760733 
L 267.913591 88.438041 
z
" style="fill:#815748;stroke:#815748;"/>
    <path clip-path="url(#pe92cbb0859)" d="M 217.392512 100.701608 
L 221.61941 101.956889 
L 221.869547 88.805128 
L 217.615111 87.56683 
z
" style="fill:#eea285;stroke:#eea285;"/>
    <path clip-path="url(#pe92cbb0859)" d="M 270.156862 102.800082 
L 267.370288 101.584771 
L 267.913591 88.438041 
L 270.719063 89.63693 
z
" style="fill:#7e5646;stroke:#7e5646;"/>
    <path clip-path="url(#pe92cbb0859)" d="M 221.61941 101.956889 
L 227.113831 103.424885 
L 227.399847 90.253301 
L 221.869547 88.805128 
z
" style="fill:#eca184;stroke:#eca184;"/>
    <path clip-path="url(#pe92cbb0859)" d="M 272.547511 104.262242 
L 270.156862 102.800082 
L 270.719063 89.63693 
L 273.126346 91.07937 
z
" style="fill:#7b5445;stroke:#7b5445;"/>
    <path clip-path="url(#pe92cbb0859)" d="M 227.113831 103.424885 
L 231.704517 104.501657 
L 232.02056 91.315559 
L 227.399847 90.253301 
z
" style="fill:#ea9f82;stroke:#ea9f82;"/>
    <path clip-path="url(#pe92cbb0859)" d="M 231.704517 104.501657 
L 237.725553 105.700718 
L 238.08101 92.498483 
L 232.02056 91.315559 
z
" style="fill:#e79d80;stroke:#e79d80;"/>
    <path clip-path="url(#pe92cbb0859)" d="M 237.725553 105.700718 
L 244.101208 106.709637 
L 244.498397 93.493846 
L 238.08101 92.498483 
z
" style="fill:#e29a7e;stroke:#e29a7e;"/>
    <path clip-path="url(#pe92cbb0859)" d="M 244.101208 106.709637 
L 249.48826 107.358808 
L 249.920675 94.134305 
L 244.498397 93.493846 
z
" style="fill:#de977b;stroke:#de977b;"/>
    <path clip-path="url(#pe92cbb0859)" d="M 249.48826 107.358808 
L 256.650078 107.927524 
L 257.129219 94.695396 
L 249.920675 94.134305 
z
" style="fill:#d79278;stroke:#d79278;"/>
    <path clip-path="url(#pe92cbb0859)" d="M 256.650078 107.927524 
L 261.266955 108.082666 
L 261.776098 94.848458 
L 257.129219 94.695396 
z
" style="fill:#cf8d73;stroke:#cf8d73;"/>
    <path clip-path="url(#pe92cbb0859)" d="M 261.266955 108.082666 
L 266.310985 107.984229 
L 266.852704 94.751341 
L 261.776098 94.848458 
z
" style="fill:#c5866e;stroke:#c5866e;"/>
   </g>
   <g id="Poly3DCollection_7">
    <path clip-path="url(#pe92cbb0859)" d="M 221.375318 81.038106 
L 215.37938 80.845837 
L 215.588244 67.637442 
L 221.622489 67.826962 
z
" style="fill:#954536;stroke:#954536;"/>
    <path clip-path="url(#pe92cbb0859)" d="M 215.37938 80.845837 
L 210.94493 81.483582 
L 211.125698 68.266072 
L 215.588244 67.637442 
z
" style="fill:#b35341;stroke:#b35341;"/>
    <path clip-path="url(#pe92cbb0859)" d="M 226.914399 81.520385 
L 221.375318 81.038106 
L 221.622489 67.826962 
L 227.197114 68.30235 
z
" style="fill:#8c4133;stroke:#8c4133;"/>
    <path clip-path="url(#pe92cbb0859)" d="M 233.456084 82.343888 
L 226.914399 81.520385 
L 227.197114 68.30235 
L 233.780975 69.114095 
z
" style="fill:#873e31;stroke:#873e31;"/>
    <path clip-path="url(#pe92cbb0859)" d="M 210.94493 81.483582 
L 210.765503 82.482208 
L 210.945406 69.250442 
L 211.125698 68.266072 
z
" style="fill:#df6851;stroke:#df6851;"/>
    <path clip-path="url(#pe92cbb0859)" d="M 239.681511 83.356508 
L 233.456084 82.343888 
L 233.780975 69.114095 
L 240.046768 70.112277 
z
" style="fill:#823c30;stroke:#823c30;"/>
    <path clip-path="url(#pe92cbb0859)" d="M 210.765503 82.482208 
L 212.959364 83.900272 
L 213.153722 70.648296 
L 210.945406 69.250442 
z
" style="fill:#e26952;stroke:#e26952;"/>
    <path clip-path="url(#pe92cbb0859)" d="M 245.617201 84.547245 
L 239.681511 83.356508 
L 240.046768 70.112277 
L 246.021205 71.286062 
z
" style="fill:#7f3b2e;stroke:#7f3b2e;"/>
    <path clip-path="url(#pe92cbb0859)" d="M 212.959364 83.900272 
L 217.062007 85.570689 
L 217.283224 72.294957 
L 213.153722 70.648296 
z
" style="fill:#de6751;stroke:#de6751;"/>
    <path clip-path="url(#pe92cbb0859)" d="M 250.139672 85.640558 
L 245.617201 84.547245 
L 246.021205 71.286062 
L 250.573418 72.363834 
z
" style="fill:#7b392d;stroke:#7b392d;"/>
    <path clip-path="url(#pe92cbb0859)" d="M 217.062007 85.570689 
L 220.687254 86.759708 
L 220.932211 73.4671 
L 217.283224 72.294957 
z
" style="fill:#dc6650;stroke:#dc6650;"/>
    <path clip-path="url(#pe92cbb0859)" d="M 254.410822 86.890081 
L 250.139672 85.640558 
L 250.573418 72.363834 
L 254.872902 73.595624 
z
" style="fill:#78382c;stroke:#78382c;"/>
    <path clip-path="url(#pe92cbb0859)" d="M 220.687254 86.759708 
L 224.9747 87.976804 
L 225.247763 74.666949 
L 220.932211 73.4671 
z
" style="fill:#da654f;stroke:#da654f;"/>
    <path clip-path="url(#pe92cbb0859)" d="M 258.377261 88.415394 
L 254.410822 86.890081 
L 254.872902 73.595624 
L 258.866026 75.099331 
z
" style="fill:#75362b;stroke:#75362b;"/>
    <path clip-path="url(#pe92cbb0859)" d="M 224.9747 87.976804 
L 230.667167 89.330009 
L 230.977583 76.001013 
L 225.247763 74.666949 
z
" style="fill:#d7644e;stroke:#d7644e;"/>
    <path clip-path="url(#pe92cbb0859)" d="M 260.547592 89.884209 
L 258.377261 88.415394 
L 258.866026 75.099331 
L 261.051503 76.547383 
z
" style="fill:#713429;stroke:#713429;"/>
    <path clip-path="url(#pe92cbb0859)" d="M 230.667167 89.330009 
L 236.737332 90.488417 
L 237.087595 77.143063 
L 230.977583 76.001013 
z
" style="fill:#d3624d;stroke:#d3624d;"/>
    <path clip-path="url(#pe92cbb0859)" d="M 259.386422 91.495875 
L 260.547592 89.884209 
L 261.051503 76.547383 
L 259.884059 78.136317 
z
" style="fill:#78372c;stroke:#78372c;"/>
    <path clip-path="url(#pe92cbb0859)" d="M 236.737332 90.488417 
L 244.629295 91.553145 
L 245.0313 78.19278 
L 237.087595 77.143063 
z
" style="fill:#cd5f4b;stroke:#cd5f4b;"/>
    <path clip-path="url(#pe92cbb0859)" d="M 255.232065 92.013505 
L 259.386422 91.495875 
L 259.884059 78.136317 
L 255.703145 78.646656 
z
" style="fill:#a34c3b;stroke:#a34c3b;"/>
    <path clip-path="url(#pe92cbb0859)" d="M 244.629295 91.553145 
L 250.390117 91.986198 
L 250.829764 78.619733 
L 245.0313 78.19278 
z
" style="fill:#c55b48;stroke:#c55b48;"/>
    <path clip-path="url(#pe92cbb0859)" d="M 250.390117 91.986198 
L 255.232065 92.013505 
L 255.703145 78.646656 
L 250.829764 78.619733 
z
" style="fill:#b95643;stroke:#b95643;"/>
   </g>
   <g id="Poly3DCollection_8">
    <path clip-path="url(#pe92cbb0859)" d="M 230.474007 70.920879 
L 225.71136 70.834594 
L 225.989282 57.408936 
L 230.782692 57.493935 
z
" style="fill:#770319;stroke:#770319;"/>
    <path clip-path="url(#pe92cbb0859)" d="M 235.749882 71.583834 
L 230.474007 70.920879 
L 230.782692 57.493935 
L 236.092964 58.147019 
z
" style="fill:#690216;stroke:#690216;"/>
    <path clip-path="url(#pe92cbb0859)" d="M 225.71136 70.834594 
L 226.223297 72.381698 
L 226.505213 58.933015 
L 225.989282 57.408936 
z
" style="fill:#b40426;stroke:#b40426;"/>
    <path clip-path="url(#pe92cbb0859)" d="M 241.578129 72.847268 
L 235.749882 71.583834 
L 236.092964 58.147019 
L 241.959613 59.391666 
z
" style="fill:#610215;stroke:#610215;"/>
    <path clip-path="url(#pe92cbb0859)" d="M 226.223297 72.381698 
L 230.359006 73.651484 
L 230.668286 60.183939 
L 226.505213 58.933015 
z
" style="fill:#af0425;stroke:#af0425;"/>
    <path clip-path="url(#pe92cbb0859)" d="M 245.195984 74.201826 
L 241.578129 72.847268 
L 241.959613 59.391666 
L 245.601748 60.726116 
z
" style="fill:#5a0213;stroke:#5a0213;"/>
    <path clip-path="url(#pe92cbb0859)" d="M 230.359006 73.651484 
L 236.397014 74.811855 
L 236.746055 61.327102 
L 230.668286 60.183939 
z
" style="fill:#a80424;stroke:#a80424;"/>
    <path clip-path="url(#pe92cbb0859)" d="M 243.32227 75.343464 
L 245.195984 74.201826 
L 245.601748 60.726116 
L 243.716595 61.850836 
z
" style="fill:#630215;stroke:#630215;"/>
    <path clip-path="url(#pe92cbb0859)" d="M 236.397014 74.811855 
L 243.32227 75.343464 
L 243.716595 61.850836 
L 236.746055 61.327102 
z
" style="fill:#9d0321;stroke:#9d0321;"/>
   </g>
  </g>
 </g>
 <defs>
  <clipPath id="pe92cbb0859">
   <rect height="217.44" width="334.8" x="10.7" y="10.7"/>
  </clipPath>
 </defs>
</svg>
